# Original Crosshair weapon, centimeters, X forward / Z up
mtllib Crosshair.mtl
usemtl Paint
v -4.120000 2.162000 -0.800000
v -4.120000 2.088332 -0.654026
v -4.120000 1.872347 -0.518000
v -4.120000 1.528765 -0.401192
v -4.120000 1.081000 -0.311562
v -4.120000 0.559567 -0.255218
v -4.120000 0.000000 -0.236000
v -4.120000 -0.559567 -0.255218
v -4.120000 -1.081000 -0.311562
v -4.120000 -1.528765 -0.401192
v -4.120000 -1.872347 -0.518000
v -4.120000 -2.088332 -0.654026
v -4.120000 -2.162000 -0.800000
v -4.120000 -2.088332 -0.945974
v -4.120000 -1.872347 -1.082000
v -4.120000 -1.528765 -1.198808
v -4.120000 -1.081000 -1.288438
v -4.120000 -0.559567 -1.344782
v -4.120000 -0.000000 -1.364000
v -4.120000 0.559567 -1.344782
v -4.120000 1.081000 -1.288438
v -4.120000 1.528765 -1.198808
v -4.120000 1.872347 -1.082000
v -4.120000 2.088332 -0.945974
v -4.000000 2.300000 -0.800000
v -4.000000 2.221629 -0.644709
v -4.000000 1.991858 -0.500000
v -4.000000 1.626346 -0.375736
v -4.000000 1.150000 -0.280385
v -4.000000 0.595284 -0.220445
v -4.000000 0.000000 -0.200000
v -4.000000 -0.595284 -0.220445
v -4.000000 -1.150000 -0.280385
v -4.000000 -1.626346 -0.375736
v -4.000000 -1.991858 -0.500000
v -4.000000 -2.221629 -0.644709
v -4.000000 -2.300000 -0.800000
v -4.000000 -2.221629 -0.955291
v -4.000000 -1.991858 -1.100000
v -4.000000 -1.626346 -1.224264
v -4.000000 -1.150000 -1.319615
v -4.000000 -0.595284 -1.379555
v -4.000000 -0.000000 -1.400000
v -4.000000 0.595284 -1.379555
v -4.000000 1.150000 -1.319615
v -4.000000 1.626346 -1.224264
v -4.000000 1.991858 -1.100000
v -4.000000 2.221629 -0.955291
v 0.000000 2.900000 -0.800000
v 0.000000 2.801185 -0.567063
v 0.000000 2.511474 -0.350000
v 0.000000 2.050610 -0.163604
v 0.000000 1.450000 -0.020577
v 0.000000 0.750575 0.069333
v 0.000000 0.000000 0.100000
v 0.000000 -0.750575 0.069333
v 0.000000 -1.450000 -0.020577
v 0.000000 -2.050610 -0.163604
v 0.000000 -2.511474 -0.350000
v 0.000000 -2.801185 -0.567063
v 0.000000 -2.900000 -0.800000
v 0.000000 -2.801185 -1.032937
v 0.000000 -2.511474 -1.250000
v 0.000000 -2.050610 -1.436396
v 0.000000 -1.450000 -1.579423
v 0.000000 -0.750575 -1.669333
v 0.000000 -0.000000 -1.700000
v 0.000000 0.750575 -1.669333
v 0.000000 1.450000 -1.579423
v 0.000000 2.050610 -1.436396
v 0.000000 2.511474 -1.250000
v 0.000000 2.801185 -1.032937
v 4.000000 2.300000 -0.800000
v 4.000000 2.221629 -0.644709
v 4.000000 1.991858 -0.500000
v 4.000000 1.626346 -0.375736
v 4.000000 1.150000 -0.280385
v 4.000000 0.595284 -0.220445
v 4.000000 0.000000 -0.200000
v 4.000000 -0.595284 -0.220445
v 4.000000 -1.150000 -0.280385
v 4.000000 -1.626346 -0.375736
v 4.000000 -1.991858 -0.500000
v 4.000000 -2.221629 -0.644709
v 4.000000 -2.300000 -0.800000
v 4.000000 -2.221629 -0.955291
v 4.000000 -1.991858 -1.100000
v 4.000000 -1.626346 -1.224264
v 4.000000 -1.150000 -1.319615
v 4.000000 -0.595284 -1.379555
v 4.000000 -0.000000 -1.400000
v 4.000000 0.595284 -1.379555
v 4.000000 1.150000 -1.319615
v 4.000000 1.626346 -1.224264
v 4.000000 1.991858 -1.100000
v 4.000000 2.221629 -0.955291
v 4.120000 2.162000 -0.800000
v 4.120000 2.088332 -0.654026
v 4.120000 1.872347 -0.518000
v 4.120000 1.528765 -0.401192
v 4.120000 1.081000 -0.311562
v 4.120000 0.559567 -0.255218
v 4.120000 0.000000 -0.236000
v 4.120000 -0.559567 -0.255218
v 4.120000 -1.081000 -0.311562
v 4.120000 -1.528765 -0.401192
v 4.120000 -1.872347 -0.518000
v 4.120000 -2.088332 -0.654026
v 4.120000 -2.162000 -0.800000
v 4.120000 -2.088332 -0.945974
v 4.120000 -1.872347 -1.082000
v 4.120000 -1.528765 -1.198808
v 4.120000 -1.081000 -1.288438
v 4.120000 -0.559567 -1.344782
v 4.120000 -0.000000 -1.364000
v 4.120000 0.559567 -1.344782
v 4.120000 1.081000 -1.288438
v 4.120000 1.528765 -1.198808
v 4.120000 1.872347 -1.082000
v 4.120000 2.088332 -0.945974
vt 0.174028 -0.078831
vn -1.000000 0.000000 0.000000
vt 0.156029 -0.090167
vn -1.000000 0.000000 0.000000
vt 0.127397 -0.099901
vn -1.000000 0.000000 0.000000
vt 0.090083 -0.107370
vn -1.000000 0.000000 0.000000
vt 0.046631 -0.112065
vn -1.000000 0.000000 0.000000
vt -0.000000 -0.113667
vn -1.000000 0.000000 0.000000
vt -0.046631 -0.112065
vn -1.000000 0.000000 0.000000
vt -0.090083 -0.107370
vn -1.000000 0.000000 0.000000
vt -0.127397 -0.099901
vn -1.000000 0.000000 0.000000
vt -0.156029 -0.090167
vn -1.000000 0.000000 0.000000
vt -0.174028 -0.078831
vn -1.000000 0.000000 0.000000
vt -0.180167 -0.066667
vn -1.000000 0.000000 0.000000
vt -0.174028 -0.054502
vn -1.000000 0.000000 0.000000
vt -0.156029 -0.043167
vn -1.000000 0.000000 0.000000
vt -0.127397 -0.033433
vn -1.000000 0.000000 0.000000
vt -0.090083 -0.025963
vn -1.000000 0.000000 0.000000
vt -0.046631 -0.021268
vn -1.000000 0.000000 0.000000
vt 0.000000 -0.019667
vn -1.000000 0.000000 0.000000
vt 0.046631 -0.021268
vn -1.000000 0.000000 0.000000
vt 0.090083 -0.025963
vn -1.000000 0.000000 0.000000
vt 0.127397 -0.033433
vn -1.000000 0.000000 0.000000
vt 0.156029 -0.043167
vn -1.000000 0.000000 0.000000
vt 0.174028 -0.054502
vn -1.000000 0.000000 0.000000
vt 0.180167 -0.066667
vn -1.000000 0.000000 0.000000
f 24/1/1 23/2/2 22/3/3 21/4/4 20/5/5 19/6/6 18/7/7 17/8/8 16/9/9 15/10/10 14/11/11 13/12/12 12/13/13 11/14/14 10/15/15 9/16/16 8/17/17 7/18/18 6/19/19 5/20/20 4/21/21 3/22/22 2/23/23 1/24/24
vt 0.180167 -0.066667
vn 1.000000 0.000000 0.000000
vt 0.174028 -0.054502
vn 1.000000 0.000000 0.000000
vt 0.156029 -0.043167
vn 1.000000 0.000000 0.000000
vt 0.127397 -0.033433
vn 1.000000 0.000000 0.000000
vt 0.090083 -0.025963
vn 1.000000 0.000000 0.000000
vt 0.046631 -0.021268
vn 1.000000 0.000000 0.000000
vt 0.000000 -0.019667
vn 1.000000 0.000000 0.000000
vt -0.046631 -0.021268
vn 1.000000 0.000000 0.000000
vt -0.090083 -0.025963
vn 1.000000 0.000000 0.000000
vt -0.127397 -0.033433
vn 1.000000 0.000000 0.000000
vt -0.156029 -0.043167
vn 1.000000 0.000000 0.000000
vt -0.174028 -0.054502
vn 1.000000 0.000000 0.000000
vt -0.180167 -0.066667
vn 1.000000 0.000000 0.000000
vt -0.174028 -0.078831
vn 1.000000 0.000000 0.000000
vt -0.156029 -0.090167
vn 1.000000 0.000000 0.000000
vt -0.127397 -0.099901
vn 1.000000 0.000000 0.000000
vt -0.090083 -0.107370
vn 1.000000 0.000000 0.000000
vt -0.046631 -0.112065
vn 1.000000 0.000000 0.000000
vt -0.000000 -0.113667
vn 1.000000 0.000000 0.000000
vt 0.046631 -0.112065
vn 1.000000 0.000000 0.000000
vt 0.090083 -0.107370
vn 1.000000 0.000000 0.000000
vt 0.127397 -0.099901
vn 1.000000 0.000000 0.000000
vt 0.156029 -0.090167
vn 1.000000 0.000000 0.000000
vt 0.174028 -0.078831
vn 1.000000 0.000000 0.000000
f 97/25/25 98/26/26 99/27/27 100/28/28 101/29/29 102/30/30 103/31/31 104/32/32 105/33/33 106/34/34 107/35/35 108/36/36 109/37/37 110/38/38 111/39/39 112/40/40 113/41/41 114/42/42 115/43/43 116/44/44 117/45/45 118/46/46 119/47/47 120/48/48
vt 0.180167 -0.066667
vn -0.754606 0.656179 -0.000000
vt 0.174028 -0.054502
vn -0.650520 0.548936 0.524874
vt 0.185136 -0.053726
vn -0.405244 0.669370 0.622673
vt 0.191667 -0.066667
vn -0.491635 0.870801 -0.000072
f 1/49/49 2/50/50 26/51/51 25/52/52
vt -0.343333 0.174028
vn -0.650520 0.548936 0.524874
vt -0.343333 0.156029
vn -0.488554 0.371653 0.789423
vt -0.333333 0.165988
vn -0.297053 0.408920 0.862869
vt -0.333333 0.185136
vn -0.405244 0.669370 0.622673
f 2/53/53 3/54/54 27/55/55 26/56/56
vt -0.343333 0.156029
vn -0.488554 0.371653 0.789423
vt -0.343333 0.127397
vn -0.383446 0.238807 0.892155
vt -0.333333 0.135529
vn -0.235184 0.251845 0.938756
vt -0.333333 0.165988
vn -0.297053 0.408920 0.862869
f 3/57/57 4/58/58 28/59/59 27/60/60
vt -0.343333 0.127397
vn -0.383446 0.238807 0.892155
vt -0.343333 0.090083
vn -0.325307 0.143433 0.934667
vt -0.333333 0.095833
vn -0.202856 0.148691 0.967853
vt -0.333333 0.135529
vn -0.235184 0.251845 0.938756
f 4/61/61 5/62/62 29/63/63 28/64/64
vt -0.343333 0.090083
vn -0.325307 0.143433 0.934667
vt -0.343333 0.046631
vn -0.296211 0.067642 0.952724
vt -0.333333 0.049607
vn -0.186997 0.069622 0.979890
vt -0.333333 0.095833
vn -0.202856 0.148691 0.967853
f 5/65/65 6/66/66 30/67/67 29/68/68
vt -0.343333 0.046631
vn -0.296211 0.067642 0.952724
vt -0.343333 0.000000
vn -0.287348 0.000000 0.957826
vt -0.333333 0.000000
vn -0.181840 -0.000001 0.983328
vt -0.333333 0.049607
vn -0.186997 0.069622 0.979890
f 6/69/69 7/70/70 31/71/71 30/72/72
vt -0.343333 0.000000
vn -0.287348 0.000000 0.957826
vt -0.343333 -0.046631
vn -0.296211 -0.067642 0.952724
vt -0.333333 -0.049607
vn -0.185827 -0.069640 0.980111
vt -0.333333 0.000000
vn -0.181840 -0.000001 0.983328
f 7/73/73 8/74/74 32/75/75 31/76/76
vt -0.343333 -0.046631
vn -0.296211 -0.067642 0.952724
vt -0.343333 -0.090083
vn -0.325307 -0.143433 0.934667
vt -0.333333 -0.095833
vn -0.200625 -0.148762 0.968307
vt -0.333333 -0.049607
vn -0.185827 -0.069640 0.980111
f 8/77/77 9/78/78 33/79/79 32/80/80
vt -0.343333 -0.090083
vn -0.325307 -0.143433 0.934667
vt -0.343333 -0.127397
vn -0.383446 -0.238807 0.892155
vt -0.333333 -0.135529
vn -0.232127 -0.252037 0.939465
vt -0.333333 -0.095833
vn -0.200625 -0.148762 0.968307
f 9/81/81 10/82/82 34/83/83 33/84/84
vt -0.343333 -0.127397
vn -0.383446 -0.238807 0.892155
vt -0.343333 -0.156029
vn -0.488554 -0.371653 0.789423
vt -0.333333 -0.165988
vn -0.293628 -0.409378 0.863824
vt -0.333333 -0.135529
vn -0.232127 -0.252037 0.939465
f 10/85/85 11/86/86 35/87/87 34/88/88
vt -0.343333 -0.156029
vn -0.488554 -0.371653 0.789423
vt -0.343333 -0.174028
vn -0.650520 -0.548936 0.524874
vt -0.333333 -0.185136
vn -0.402576 -0.670228 0.623481
vt -0.333333 -0.165988
vn -0.293628 -0.409378 0.863824
f 11/89/89 12/90/90 36/91/91 35/92/92
vt -0.174028 -0.054502
vn -0.650520 -0.548936 0.524874
vt -0.180167 -0.066667
vn -0.754606 -0.656179 0.000000
vt -0.191667 -0.066667
vn -0.491635 -0.870801 0.000072
vt -0.185136 -0.053726
vn -0.402576 -0.670228 0.623481
f 12/93/93 13/94/94 37/95/95 36/96/96
vt -0.180167 -0.066667
vn -0.754606 -0.656179 0.000000
vt -0.174028 -0.078831
vn -0.650520 -0.548936 -0.524874
vt -0.185136 -0.079608
vn -0.405244 -0.669370 -0.622673
vt -0.191667 -0.066667
vn -0.491635 -0.870801 0.000072
f 13/97/97 14/98/98 38/99/99 37/100/100
vt -0.343333 -0.174028
vn -0.650520 -0.548936 -0.524874
vt -0.343333 -0.156029
vn -0.488554 -0.371653 -0.789423
vt -0.333333 -0.165988
vn -0.297053 -0.408920 -0.862869
vt -0.333333 -0.185136
vn -0.405244 -0.669370 -0.622673
f 14/101/101 15/102/102 39/103/103 38/104/104
vt -0.343333 -0.156029
vn -0.488554 -0.371653 -0.789423
vt -0.343333 -0.127397
vn -0.383446 -0.238807 -0.892155
vt -0.333333 -0.135529
vn -0.235184 -0.251845 -0.938756
vt -0.333333 -0.165988
vn -0.297053 -0.408920 -0.862869
f 15/105/105 16/106/106 40/107/107 39/108/108
vt -0.343333 -0.127397
vn -0.383446 -0.238807 -0.892155
vt -0.343333 -0.090083
vn -0.325307 -0.143433 -0.934667
vt -0.333333 -0.095833
vn -0.202856 -0.148691 -0.967853
vt -0.333333 -0.135529
vn -0.235184 -0.251845 -0.938756
f 16/109/109 17/110/110 41/111/111 40/112/112
vt -0.343333 -0.090083
vn -0.325307 -0.143433 -0.934667
vt -0.343333 -0.046631
vn -0.296211 -0.067642 -0.952724
vt -0.333333 -0.049607
vn -0.186997 -0.069622 -0.979890
vt -0.333333 -0.095833
vn -0.202856 -0.148691 -0.967853
f 17/113/113 18/114/114 42/115/115 41/116/116
vt -0.343333 -0.046631
vn -0.296211 -0.067642 -0.952724
vt -0.343333 -0.000000
vn -0.287348 -0.000000 -0.957826
vt -0.333333 -0.000000
vn -0.181840 0.000001 -0.983328
vt -0.333333 -0.049607
vn -0.186997 -0.069622 -0.979890
f 18/117/117 19/118/118 43/119/119 42/120/120
vt -0.343333 -0.000000
vn -0.287348 -0.000000 -0.957826
vt -0.343333 0.046631
vn -0.296211 0.067642 -0.952724
vt -0.333333 0.049607
vn -0.185827 0.069640 -0.980111
vt -0.333333 -0.000000
vn -0.181840 0.000001 -0.983328
f 19/121/121 20/122/122 44/123/123 43/124/124
vt -0.343333 0.046631
vn -0.296211 0.067642 -0.952724
vt -0.343333 0.090083
vn -0.325307 0.143433 -0.934667
vt -0.333333 0.095833
vn -0.200625 0.148762 -0.968307
vt -0.333333 0.049607
vn -0.185827 0.069640 -0.980111
f 20/125/125 21/126/126 45/127/127 44/128/128
vt -0.343333 0.090083
vn -0.325307 0.143433 -0.934667
vt -0.343333 0.127397
vn -0.383446 0.238807 -0.892155
vt -0.333333 0.135529
vn -0.232127 0.252037 -0.939465
vt -0.333333 0.095833
vn -0.200625 0.148762 -0.968307
f 21/129/129 22/130/130 46/131/131 45/132/132
vt -0.343333 0.127397
vn -0.383446 0.238807 -0.892155
vt -0.343333 0.156029
vn -0.488554 0.371653 -0.789423
vt -0.333333 0.165988
vn -0.293628 0.409378 -0.863824
vt -0.333333 0.135529
vn -0.232127 0.252037 -0.939465
f 22/133/133 23/134/134 47/135/135 46/136/136
vt -0.343333 0.156029
vn -0.488554 0.371653 -0.789423
vt -0.343333 0.174028
vn -0.650520 0.548936 -0.524874
vt -0.333333 0.185136
vn -0.402576 0.670228 -0.623481
vt -0.333333 0.165988
vn -0.293628 0.409378 -0.863824
f 23/137/137 24/138/138 48/139/139 47/140/140
vt 0.174028 -0.078831
vn -0.650520 0.548936 -0.524874
vt 0.180167 -0.066667
vn -0.754606 0.656179 -0.000000
vt 0.191667 -0.066667
vn -0.491635 0.870801 -0.000072
vt 0.185136 -0.079608
vn -0.402576 0.670228 -0.623481
f 24/141/141 1/142/142 25/143/143 48/144/144
vt -0.333333 -0.066667
vn -0.491635 0.870801 -0.000072
vt -0.333333 -0.053726
vn -0.405244 0.669370 0.622673
vt 0.000000 -0.047255
vn 0.002513 0.763660 0.645613
vt 0.000000 -0.066667
vn 0.001906 0.999998 -0.000112
f 25/145/145 26/146/146 50/147/147 49/148/148
vt -0.333333 0.185136
vn -0.405244 0.669370 0.622673
vt -0.333333 0.165988
vn -0.297053 0.408920 0.862869
vt 0.000000 0.209289
vn 0.002877 0.461010 0.887390
vt 0.000000 0.233432
vn 0.002513 0.763660 0.645613
f 26/149/149 27/150/150 51/151/151 50/152/152
vt -0.333333 0.165988
vn -0.297053 0.408920 0.862869
vt -0.333333 0.135529
vn -0.235184 0.251845 0.938756
vt 0.000000 0.170884
vn 0.001675 0.281939 0.959431
vt 0.000000 0.209289
vn 0.002877 0.461010 0.887390
f 27/153/153 28/154/154 52/155/155 51/156/156
vt -0.333333 0.135529
vn -0.235184 0.251845 0.938756
vt -0.333333 0.095833
vn -0.202856 0.148691 0.967853
vt 0.000000 0.120833
vn 0.000686 0.165927 0.986138
vt 0.000000 0.170884
vn 0.001675 0.281939 0.959431
f 28/157/157 29/158/158 53/159/159 52/160/160
vt -0.333333 0.095833
vn -0.202856 0.148691 0.967853
vt -0.333333 0.049607
vn -0.186997 0.069622 0.979890
vt 0.000000 0.062548
vn 0.000146 0.077581 0.996986
vt 0.000000 0.120833
vn 0.000686 0.165927 0.986138
f 29/161/161 30/162/162 54/163/163 53/164/164
vt -0.333333 0.049607
vn -0.186997 0.069622 0.979890
vt -0.333333 0.000000
vn -0.181840 -0.000001 0.983328
vt 0.000000 0.000000
vn 0.000054 -0.000002 1.000000
vt 0.000000 0.062548
vn 0.000146 0.077581 0.996986
f 30/165/165 31/166/166 55/167/167 54/168/168
vt -0.333333 0.000000
vn -0.181840 -0.000001 0.983328
vt -0.333333 -0.049607
vn -0.185827 -0.069640 0.980111
vt 0.000000 -0.062548
vn 0.000395 -0.077584 0.996986
vt 0.000000 0.000000
vn 0.000054 -0.000002 1.000000
f 31/169/169 32/170/170 56/171/171 55/172/172
vt -0.333333 -0.049607
vn -0.185827 -0.069640 0.980111
vt -0.333333 -0.095833
vn -0.200625 -0.148762 0.968307
vt 0.000000 -0.120833
vn 0.001168 -0.165930 0.986137
vt 0.000000 -0.062548
vn 0.000395 -0.077584 0.996986
f 32/173/173 33/174/174 57/175/175 56/176/176
vt -0.333333 -0.095833
vn -0.200625 -0.148762 0.968307
vt -0.333333 -0.135529
vn -0.232127 -0.252037 0.939465
vt 0.000000 -0.170884
vn 0.002366 -0.281943 0.959428
vt 0.000000 -0.120833
vn 0.001168 -0.165930 0.986137
f 33/177/177 34/178/178 58/179/179 57/180/180
vt -0.333333 -0.135529
vn -0.232127 -0.252037 0.939465
vt -0.333333 -0.165988
vn -0.293628 -0.409378 0.863824
vt 0.000000 -0.209289
vn 0.003731 -0.461014 0.887385
vt 0.000000 -0.170884
vn 0.002366 -0.281943 0.959428
f 34/181/181 35/182/182 59/183/183 58/184/184
vt -0.333333 -0.165988
vn -0.293628 -0.409378 0.863824
vt -0.333333 -0.185136
vn -0.402576 -0.670228 0.623481
vt 0.000000 -0.233432
vn 0.003320 -0.763642 0.645631
vt 0.000000 -0.209289
vn 0.003731 -0.461014 0.887385
f 35/185/185 36/186/186 60/187/187 59/188/188
vt -0.333333 -0.053726
vn -0.402576 -0.670228 0.623481
vt -0.333333 -0.066667
vn -0.491635 -0.870801 0.000072
vt 0.000000 -0.066667
vn 0.001906 -0.999998 0.000112
vt 0.000000 -0.047255
vn 0.003320 -0.763642 0.645631
f 36/189/189 37/190/190 61/191/191 60/192/192
vt -0.333333 -0.066667
vn -0.491635 -0.870801 0.000072
vt -0.333333 -0.079608
vn -0.405244 -0.669370 -0.622673
vt 0.000000 -0.086078
vn 0.002513 -0.763660 -0.645613
vt 0.000000 -0.066667
vn 0.001906 -0.999998 0.000112
f 37/193/193 38/194/194 62/195/195 61/196/196
vt -0.333333 -0.185136
vn -0.405244 -0.669370 -0.622673
vt -0.333333 -0.165988
vn -0.297053 -0.408920 -0.862869
vt 0.000000 -0.209289
vn 0.002877 -0.461010 -0.887390
vt 0.000000 -0.233432
vn 0.002513 -0.763660 -0.645613
f 38/197/197 39/198/198 63/199/199 62/200/200
vt -0.333333 -0.165988
vn -0.297053 -0.408920 -0.862869
vt -0.333333 -0.135529
vn -0.235184 -0.251845 -0.938756
vt 0.000000 -0.170884
vn 0.001675 -0.281939 -0.959431
vt 0.000000 -0.209289
vn 0.002877 -0.461010 -0.887390
f 39/201/201 40/202/202 64/203/203 63/204/204
vt -0.333333 -0.135529
vn -0.235184 -0.251845 -0.938756
vt -0.333333 -0.095833
vn -0.202856 -0.148691 -0.967853
vt 0.000000 -0.120833
vn 0.000686 -0.165927 -0.986138
vt 0.000000 -0.170884
vn 0.001675 -0.281939 -0.959431
f 40/205/205 41/206/206 65/207/207 64/208/208
vt -0.333333 -0.095833
vn -0.202856 -0.148691 -0.967853
vt -0.333333 -0.049607
vn -0.186997 -0.069622 -0.979890
vt 0.000000 -0.062548
vn 0.000146 -0.077581 -0.996986
vt 0.000000 -0.120833
vn 0.000686 -0.165927 -0.986138
f 41/209/209 42/210/210 66/211/211 65/212/212
vt -0.333333 -0.049607
vn -0.186997 -0.069622 -0.979890
vt -0.333333 -0.000000
vn -0.181840 0.000001 -0.983328
vt 0.000000 -0.000000
vn 0.000054 0.000002 -1.000000
vt 0.000000 -0.062548
vn 0.000146 -0.077581 -0.996986
f 42/213/213 43/214/214 67/215/215 66/216/216
vt -0.333333 -0.000000
vn -0.181840 0.000001 -0.983328
vt -0.333333 0.049607
vn -0.185827 0.069640 -0.980111
vt 0.000000 0.062548
vn 0.000395 0.077584 -0.996986
vt 0.000000 -0.000000
vn 0.000054 0.000002 -1.000000
f 43/217/217 44/218/218 68/219/219 67/220/220
vt -0.333333 0.049607
vn -0.185827 0.069640 -0.980111
vt -0.333333 0.095833
vn -0.200625 0.148762 -0.968307
vt 0.000000 0.120833
vn 0.001168 0.165930 -0.986137
vt 0.000000 0.062548
vn 0.000395 0.077584 -0.996986
f 44/221/221 45/222/222 69/223/223 68/224/224
vt -0.333333 0.095833
vn -0.200625 0.148762 -0.968307
vt -0.333333 0.135529
vn -0.232127 0.252037 -0.939465
vt 0.000000 0.170884
vn 0.002366 0.281943 -0.959428
vt 0.000000 0.120833
vn 0.001168 0.165930 -0.986137
f 45/225/225 46/226/226 70/227/227 69/228/228
vt -0.333333 0.135529
vn -0.232127 0.252037 -0.939465
vt -0.333333 0.165988
vn -0.293628 0.409378 -0.863824
vt 0.000000 0.209289
vn 0.003731 0.461014 -0.887385
vt 0.000000 0.170884
vn 0.002366 0.281943 -0.959428
f 46/229/229 47/230/230 71/231/231 70/232/232
vt -0.333333 0.165988
vn -0.293628 0.409378 -0.863824
vt -0.333333 0.185136
vn -0.402576 0.670228 -0.623481
vt 0.000000 0.233432
vn 0.003320 0.763642 -0.645631
vt 0.000000 0.209289
vn 0.003731 0.461014 -0.887385
f 47/233/233 48/234/234 72/235/235 71/236/236
vt -0.333333 -0.079608
vn -0.402576 0.670228 -0.623481
vt -0.333333 -0.066667
vn -0.491635 0.870801 -0.000072
vt 0.000000 -0.066667
vn 0.001906 0.999998 -0.000112
vt 0.000000 -0.086078
vn 0.003320 0.763642 -0.645631
f 48/237/237 25/238/238 49/239/239 72/240/240
vt 0.000000 -0.066667
vn 0.001906 0.999998 -0.000112
vt 0.000000 -0.047255
vn 0.002513 0.763660 0.645613
vt 0.333333 -0.053726
vn 0.407502 0.693913 0.593655
vt 0.333333 -0.066667
vn 0.486487 0.873688 -0.000043
f 49/241/241 50/242/242 74/243/243 73/244/244
vt 0.000000 0.233432
vn 0.002513 0.763660 0.645613
vt 0.000000 0.209289
vn 0.002877 0.461010 0.887390
vt 0.333333 0.165988
vn 0.300200 0.439794 0.846440
vt 0.333333 0.185136
vn 0.407502 0.693913 0.593655
f 50/245/245 51/246/246 75/247/247 74/248/248
vt 0.000000 0.209289
vn 0.002877 0.461010 0.887390
vt 0.000000 0.170884
vn 0.001675 0.281939 0.959431
vt 0.333333 0.135529
vn 0.236958 0.274256 0.932006
vt 0.333333 0.165988
vn 0.300200 0.439794 0.846440
f 51/249/249 52/250/250 76/251/251 75/252/252
vt 0.000000 0.170884
vn 0.001675 0.281939 0.959431
vt 0.000000 0.120833
vn 0.000686 0.165927 0.986138
vt 0.333333 0.095833
vn 0.203587 0.162660 0.965450
vt 0.333333 0.135529
vn 0.236958 0.274256 0.932006
f 52/253/253 53/254/254 77/255/255 76/256/256
vt 0.000000 0.120833
vn 0.000686 0.165927 0.986138
vt 0.000000 0.062548
vn 0.000146 0.077581 0.996986
vt 0.333333 0.049607
vn 0.187170 0.076302 0.979360
vt 0.333333 0.095833
vn 0.203587 0.162660 0.965450
f 53/257/257 54/258/258 78/259/259 77/260/260
vt 0.000000 0.062548
vn 0.000146 0.077581 0.996986
vt 0.000000 0.000000
vn 0.000054 -0.000002 1.000000
vt 0.333333 0.000000
vn 0.181914 -0.000001 0.983314
vt 0.333333 0.049607
vn 0.187170 0.076302 0.979360
f 54/261/261 55/262/262 79/263/263 78/264/264
vt 0.000000 0.000000
vn 0.000054 -0.000002 1.000000
vt 0.000000 -0.062548
vn 0.000395 -0.077584 0.996986
vt 0.333333 -0.049607
vn 0.186244 -0.076317 0.979535
vt 0.333333 0.000000
vn 0.181914 -0.000001 0.983314
f 55/265/265 56/266/266 80/267/267 79/268/268
vt 0.000000 -0.062548
vn 0.000395 -0.077584 0.996986
vt 0.000000 -0.120833
vn 0.001168 -0.165930 0.986137
vt 0.333333 -0.095833
vn 0.201828 -0.162725 0.965809
vt 0.333333 -0.049607
vn 0.186244 -0.076317 0.979535
f 56/269/269 57/270/270 81/271/271 80/272/272
vt 0.000000 -0.120833
vn 0.001168 -0.165930 0.986137
vt 0.000000 -0.170884
vn 0.002366 -0.281943 0.959428
vt 0.333333 -0.135529
vn 0.234572 -0.274426 0.932559
vt 0.333333 -0.095833
vn 0.201828 -0.162725 0.965809
f 57/273/273 58/274/274 82/275/275 81/276/276
vt 0.000000 -0.170884
vn 0.002366 -0.281943 0.959428
vt 0.000000 -0.209289
vn 0.003731 -0.461014 0.887385
vt 0.333333 -0.165988
vn 0.297590 -0.440182 0.847160
vt 0.333333 -0.135529
vn 0.234572 -0.274426 0.932559
f 58/277/277 59/278/278 83/279/279 82/280/280
vt 0.000000 -0.209289
vn 0.003731 -0.461014 0.887385
vt 0.000000 -0.233432
vn 0.003320 -0.763642 0.645631
vt 0.333333 -0.185136
vn 0.405566 -0.694567 0.594216
vt 0.333333 -0.165988
vn 0.297590 -0.440182 0.847160
f 59/281/281 60/282/282 84/283/283 83/284/284
vt 0.000000 -0.047255
vn 0.003320 -0.763642 0.645631
vt 0.000000 -0.066667
vn 0.001906 -0.999998 0.000112
vt 0.333333 -0.066667
vn 0.486487 -0.873688 0.000043
vt 0.333333 -0.053726
vn 0.405566 -0.694567 0.594216
f 60/285/285 61/286/286 85/287/287 84/288/288
vt 0.000000 -0.066667
vn 0.001906 -0.999998 0.000112
vt 0.000000 -0.086078
vn 0.002513 -0.763660 -0.645613
vt 0.333333 -0.079608
vn 0.407502 -0.693913 -0.593655
vt 0.333333 -0.066667
vn 0.486487 -0.873688 0.000043
f 61/289/289 62/290/290 86/291/291 85/292/292
vt 0.000000 -0.233432
vn 0.002513 -0.763660 -0.645613
vt 0.000000 -0.209289
vn 0.002877 -0.461010 -0.887390
vt 0.333333 -0.165988
vn 0.300200 -0.439794 -0.846440
vt 0.333333 -0.185136
vn 0.407502 -0.693913 -0.593655
f 62/293/293 63/294/294 87/295/295 86/296/296
vt 0.000000 -0.209289
vn 0.002877 -0.461010 -0.887390
vt 0.000000 -0.170884
vn 0.001675 -0.281939 -0.959431
vt 0.333333 -0.135529
vn 0.236958 -0.274256 -0.932006
vt 0.333333 -0.165988
vn 0.300200 -0.439794 -0.846440
f 63/297/297 64/298/298 88/299/299 87/300/300
vt 0.000000 -0.170884
vn 0.001675 -0.281939 -0.959431
vt 0.000000 -0.120833
vn 0.000686 -0.165927 -0.986138
vt 0.333333 -0.095833
vn 0.203587 -0.162660 -0.965450
vt 0.333333 -0.135529
vn 0.236958 -0.274256 -0.932006
f 64/301/301 65/302/302 89/303/303 88/304/304
vt 0.000000 -0.120833
vn 0.000686 -0.165927 -0.986138
vt 0.000000 -0.062548
vn 0.000146 -0.077581 -0.996986
vt 0.333333 -0.049607
vn 0.187170 -0.076302 -0.979360
vt 0.333333 -0.095833
vn 0.203587 -0.162660 -0.965450
f 65/305/305 66/306/306 90/307/307 89/308/308
vt 0.000000 -0.062548
vn 0.000146 -0.077581 -0.996986
vt 0.000000 -0.000000
vn 0.000054 0.000002 -1.000000
vt 0.333333 -0.000000
vn 0.181914 0.000001 -0.983314
vt 0.333333 -0.049607
vn 0.187170 -0.076302 -0.979360
f 66/309/309 67/310/310 91/311/311 90/312/312
vt 0.000000 -0.000000
vn 0.000054 0.000002 -1.000000
vt 0.000000 0.062548
vn 0.000395 0.077584 -0.996986
vt 0.333333 0.049607
vn 0.186244 0.076317 -0.979535
vt 0.333333 -0.000000
vn 0.181914 0.000001 -0.983314
f 67/313/313 68/314/314 92/315/315 91/316/316
vt 0.000000 0.062548
vn 0.000395 0.077584 -0.996986
vt 0.000000 0.120833
vn 0.001168 0.165930 -0.986137
vt 0.333333 0.095833
vn 0.201828 0.162725 -0.965809
vt 0.333333 0.049607
vn 0.186244 0.076317 -0.979535
f 68/317/317 69/318/318 93/319/319 92/320/320
vt 0.000000 0.120833
vn 0.001168 0.165930 -0.986137
vt 0.000000 0.170884
vn 0.002366 0.281943 -0.959428
vt 0.333333 0.135529
vn 0.234572 0.274426 -0.932559
vt 0.333333 0.095833
vn 0.201828 0.162725 -0.965809
f 69/321/321 70/322/322 94/323/323 93/324/324
vt 0.000000 0.170884
vn 0.002366 0.281943 -0.959428
vt 0.000000 0.209289
vn 0.003731 0.461014 -0.887385
vt 0.333333 0.165988
vn 0.297590 0.440182 -0.847160
vt 0.333333 0.135529
vn 0.234572 0.274426 -0.932559
f 70/325/325 71/326/326 95/327/327 94/328/328
vt 0.000000 0.209289
vn 0.003731 0.461014 -0.887385
vt 0.000000 0.233432
vn 0.003320 0.763642 -0.645631
vt 0.333333 0.185136
vn 0.405566 0.694567 -0.594216
vt 0.333333 0.165988
vn 0.297590 0.440182 -0.847160
f 71/329/329 72/330/330 96/331/331 95/332/332
vt 0.000000 -0.086078
vn 0.003320 0.763642 -0.645631
vt 0.000000 -0.066667
vn 0.001906 0.999998 -0.000112
vt 0.333333 -0.066667
vn 0.486487 0.873688 -0.000043
vt 0.333333 -0.079608
vn 0.405566 0.694567 -0.594216
f 72/333/333 49/334/334 73/335/335 96/336/336
vt 0.191667 -0.066667
vn 0.486487 0.873688 -0.000043
vt 0.185136 -0.053726
vn 0.407502 0.693913 0.593655
vt 0.174028 -0.054502
vn 0.650520 0.548936 0.524874
vt 0.180167 -0.066667
vn 0.754606 0.656179 -0.000000
f 73/337/337 74/338/338 98/339/339 97/340/340
vt 0.333333 0.185136
vn 0.407502 0.693913 0.593655
vt 0.333333 0.165988
vn 0.300200 0.439794 0.846440
vt 0.343333 0.156029
vn 0.488554 0.371653 0.789423
vt 0.343333 0.174028
vn 0.650520 0.548936 0.524874
f 74/341/341 75/342/342 99/343/343 98/344/344
vt 0.333333 0.165988
vn 0.300200 0.439794 0.846440
vt 0.333333 0.135529
vn 0.236958 0.274256 0.932006
vt 0.343333 0.127397
vn 0.383446 0.238807 0.892155
vt 0.343333 0.156029
vn 0.488554 0.371653 0.789423
f 75/345/345 76/346/346 100/347/347 99/348/348
vt 0.333333 0.135529
vn 0.236958 0.274256 0.932006
vt 0.333333 0.095833
vn 0.203587 0.162660 0.965450
vt 0.343333 0.090083
vn 0.325307 0.143433 0.934667
vt 0.343333 0.127397
vn 0.383446 0.238807 0.892155
f 76/349/349 77/350/350 101/351/351 100/352/352
vt 0.333333 0.095833
vn 0.203587 0.162660 0.965450
vt 0.333333 0.049607
vn 0.187170 0.076302 0.979360
vt 0.343333 0.046631
vn 0.296211 0.067642 0.952724
vt 0.343333 0.090083
vn 0.325307 0.143433 0.934667
f 77/353/353 78/354/354 102/355/355 101/356/356
vt 0.333333 0.049607
vn 0.187170 0.076302 0.979360
vt 0.333333 0.000000
vn 0.181914 -0.000001 0.983314
vt 0.343333 0.000000
vn 0.287348 0.000000 0.957826
vt 0.343333 0.046631
vn 0.296211 0.067642 0.952724
f 78/357/357 79/358/358 103/359/359 102/360/360
vt 0.333333 0.000000
vn 0.181914 -0.000001 0.983314
vt 0.333333 -0.049607
vn 0.186244 -0.076317 0.979535
vt 0.343333 -0.046631
vn 0.296211 -0.067642 0.952724
vt 0.343333 0.000000
vn 0.287348 0.000000 0.957826
f 79/361/361 80/362/362 104/363/363 103/364/364
vt 0.333333 -0.049607
vn 0.186244 -0.076317 0.979535
vt 0.333333 -0.095833
vn 0.201828 -0.162725 0.965809
vt 0.343333 -0.090083
vn 0.325307 -0.143433 0.934667
vt 0.343333 -0.046631
vn 0.296211 -0.067642 0.952724
f 80/365/365 81/366/366 105/367/367 104/368/368
vt 0.333333 -0.095833
vn 0.201828 -0.162725 0.965809
vt 0.333333 -0.135529
vn 0.234572 -0.274426 0.932559
vt 0.343333 -0.127397
vn 0.383446 -0.238807 0.892155
vt 0.343333 -0.090083
vn 0.325307 -0.143433 0.934667
f 81/369/369 82/370/370 106/371/371 105/372/372
vt 0.333333 -0.135529
vn 0.234572 -0.274426 0.932559
vt 0.333333 -0.165988
vn 0.297590 -0.440182 0.847160
vt 0.343333 -0.156029
vn 0.488554 -0.371653 0.789423
vt 0.343333 -0.127397
vn 0.383446 -0.238807 0.892155
f 82/373/373 83/374/374 107/375/375 106/376/376
vt 0.333333 -0.165988
vn 0.297590 -0.440182 0.847160
vt 0.333333 -0.185136
vn 0.405566 -0.694567 0.594216
vt 0.343333 -0.174028
vn 0.650520 -0.548936 0.524874
vt 0.343333 -0.156029
vn 0.488554 -0.371653 0.789423
f 83/377/377 84/378/378 108/379/379 107/380/380
vt -0.185136 -0.053726
vn 0.405566 -0.694567 0.594216
vt -0.191667 -0.066667
vn 0.486487 -0.873688 0.000043
vt -0.180167 -0.066667
vn 0.754606 -0.656179 0.000000
vt -0.174028 -0.054502
vn 0.650520 -0.548936 0.524874
f 84/381/381 85/382/382 109/383/383 108/384/384
vt -0.191667 -0.066667
vn 0.486487 -0.873688 0.000043
vt -0.185136 -0.079608
vn 0.407502 -0.693913 -0.593655
vt -0.174028 -0.078831
vn 0.650520 -0.548936 -0.524874
vt -0.180167 -0.066667
vn 0.754606 -0.656179 0.000000
f 85/385/385 86/386/386 110/387/387 109/388/388
vt 0.333333 -0.185136
vn 0.407502 -0.693913 -0.593655
vt 0.333333 -0.165988
vn 0.300200 -0.439794 -0.846440
vt 0.343333 -0.156029
vn 0.488554 -0.371653 -0.789423
vt 0.343333 -0.174028
vn 0.650520 -0.548936 -0.524874
f 86/389/389 87/390/390 111/391/391 110/392/392
vt 0.333333 -0.165988
vn 0.300200 -0.439794 -0.846440
vt 0.333333 -0.135529
vn 0.236958 -0.274256 -0.932006
vt 0.343333 -0.127397
vn 0.383446 -0.238807 -0.892155
vt 0.343333 -0.156029
vn 0.488554 -0.371653 -0.789423
f 87/393/393 88/394/394 112/395/395 111/396/396
vt 0.333333 -0.135529
vn 0.236958 -0.274256 -0.932006
vt 0.333333 -0.095833
vn 0.203587 -0.162660 -0.965450
vt 0.343333 -0.090083
vn 0.325307 -0.143433 -0.934667
vt 0.343333 -0.127397
vn 0.383446 -0.238807 -0.892155
f 88/397/397 89/398/398 113/399/399 112/400/400
vt 0.333333 -0.095833
vn 0.203587 -0.162660 -0.965450
vt 0.333333 -0.049607
vn 0.187170 -0.076302 -0.979360
vt 0.343333 -0.046631
vn 0.296211 -0.067642 -0.952724
vt 0.343333 -0.090083
vn 0.325307 -0.143433 -0.934667
f 89/401/401 90/402/402 114/403/403 113/404/404
vt 0.333333 -0.049607
vn 0.187170 -0.076302 -0.979360
vt 0.333333 -0.000000
vn 0.181914 0.000001 -0.983314
vt 0.343333 -0.000000
vn 0.287348 0.000000 -0.957826
vt 0.343333 -0.046631
vn 0.296211 -0.067642 -0.952724
f 90/405/405 91/406/406 115/407/407 114/408/408
vt 0.333333 -0.000000
vn 0.181914 0.000001 -0.983314
vt 0.333333 0.049607
vn 0.186244 0.076317 -0.979535
vt 0.343333 0.046631
vn 0.296211 0.067642 -0.952724
vt 0.343333 -0.000000
vn 0.287348 0.000000 -0.957826
f 91/409/409 92/410/410 116/411/411 115/412/412
vt 0.333333 0.049607
vn 0.186244 0.076317 -0.979535
vt 0.333333 0.095833
vn 0.201828 0.162725 -0.965809
vt 0.343333 0.090083
vn 0.325307 0.143433 -0.934667
vt 0.343333 0.046631
vn 0.296211 0.067642 -0.952724
f 92/413/413 93/414/414 117/415/415 116/416/416
vt 0.333333 0.095833
vn 0.201828 0.162725 -0.965809
vt 0.333333 0.135529
vn 0.234572 0.274426 -0.932559
vt 0.343333 0.127397
vn 0.383446 0.238807 -0.892155
vt 0.343333 0.090083
vn 0.325307 0.143433 -0.934667
f 93/417/417 94/418/418 118/419/419 117/420/420
vt 0.333333 0.135529
vn 0.234572 0.274426 -0.932559
vt 0.333333 0.165988
vn 0.297590 0.440182 -0.847160
vt 0.343333 0.156029
vn 0.488554 0.371653 -0.789423
vt 0.343333 0.127397
vn 0.383446 0.238807 -0.892155
f 94/421/421 95/422/422 119/423/423 118/424/424
vt 0.333333 0.165988
vn 0.297590 0.440182 -0.847160
vt 0.333333 0.185136
vn 0.405566 0.694567 -0.594216
vt 0.343333 0.174028
vn 0.650520 0.548936 -0.524874
vt 0.343333 0.156029
vn 0.488554 0.371653 -0.789423
f 95/425/425 96/426/426 120/427/427 119/428/428
vt 0.185136 -0.079608
vn 0.405566 0.694567 -0.594216
vt 0.191667 -0.066667
vn 0.486487 0.873688 -0.000043
vt 0.180167 -0.066667
vn 0.754606 0.656179 -0.000000
vt 0.174028 -0.078831
vn 0.650520 0.548936 -0.524874
f 96/429/429 73/430/430 97/431/431 120/432/432
usemtl Metal
usemtl Rubber
v -5.120000 2.538000 0.000000
v -5.120000 2.451520 0.145974
v -5.120000 2.197972 0.282000
v -5.120000 1.794637 0.398808
v -5.120000 1.269000 0.488438
v -5.120000 0.656883 0.544782
v -5.120000 0.000000 0.564000
v -5.120000 -0.656883 0.544782
v -5.120000 -1.269000 0.488438
v -5.120000 -1.794637 0.398808
v -5.120000 -2.197972 0.282000
v -5.120000 -2.451520 0.145974
v -5.120000 -2.538000 0.000000
v -5.120000 -2.451520 -0.145974
v -5.120000 -2.197972 -0.282000
v -5.120000 -1.794637 -0.398808
v -5.120000 -1.269000 -0.488438
v -5.120000 -0.656883 -0.544782
v -5.120000 -0.000000 -0.564000
v -5.120000 0.656883 -0.544782
v -5.120000 1.269000 -0.488438
v -5.120000 1.794637 -0.398808
v -5.120000 2.197972 -0.282000
v -5.120000 2.451520 -0.145974
v -5.000000 2.700000 0.000000
v -5.000000 2.608000 0.155291
v -5.000000 2.338269 0.300000
v -5.000000 1.909188 0.424264
v -5.000000 1.350000 0.519615
v -5.000000 0.698811 0.579555
v -5.000000 0.000000 0.600000
v -5.000000 -0.698811 0.579555
v -5.000000 -1.350000 0.519615
v -5.000000 -1.909188 0.424264
v -5.000000 -2.338269 0.300000
v -5.000000 -2.608000 0.155291
v -5.000000 -2.700000 0.000000
v -5.000000 -2.608000 -0.155291
v -5.000000 -2.338269 -0.300000
v -5.000000 -1.909188 -0.424264
v -5.000000 -1.350000 -0.519615
v -5.000000 -0.698811 -0.579555
v -5.000000 -0.000000 -0.600000
v -5.000000 0.698811 -0.579555
v -5.000000 1.350000 -0.519615
v -5.000000 1.909188 -0.424264
v -5.000000 2.338269 -0.300000
v -5.000000 2.608000 -0.155291
v -3.000000 3.400000 0.000000
v -3.000000 3.284148 0.258819
v -3.000000 2.944486 0.500000
v -3.000000 2.404163 0.707107
v -3.000000 1.700000 0.866025
v -3.000000 0.879985 0.965926
v -3.000000 0.000000 1.000000
v -3.000000 -0.879985 0.965926
v -3.000000 -1.700000 0.866025
v -3.000000 -2.404163 0.707107
v -3.000000 -2.944486 0.500000
v -3.000000 -3.284148 0.258819
v -3.000000 -3.400000 0.000000
v -3.000000 -3.284148 -0.258819
v -3.000000 -2.944486 -0.500000
v -3.000000 -2.404163 -0.707107
v -3.000000 -1.700000 -0.866025
v -3.000000 -0.879985 -0.965926
v -3.000000 -0.000000 -1.000000
v -3.000000 0.879985 -0.965926
v -3.000000 1.700000 -0.866025
v -3.000000 2.404163 -0.707107
v -3.000000 2.944486 -0.500000
v -3.000000 3.284148 -0.258819
v 3.000000 3.400000 0.000000
v 3.000000 3.284148 0.258819
v 3.000000 2.944486 0.500000
v 3.000000 2.404163 0.707107
v 3.000000 1.700000 0.866025
v 3.000000 0.879985 0.965926
v 3.000000 0.000000 1.000000
v 3.000000 -0.879985 0.965926
v 3.000000 -1.700000 0.866025
v 3.000000 -2.404163 0.707107
v 3.000000 -2.944486 0.500000
v 3.000000 -3.284148 0.258819
v 3.000000 -3.400000 0.000000
v 3.000000 -3.284148 -0.258819
v 3.000000 -2.944486 -0.500000
v 3.000000 -2.404163 -0.707107
v 3.000000 -1.700000 -0.866025
v 3.000000 -0.879985 -0.965926
v 3.000000 -0.000000 -1.000000
v 3.000000 0.879985 -0.965926
v 3.000000 1.700000 -0.866025
v 3.000000 2.404163 -0.707107
v 3.000000 2.944486 -0.500000
v 3.000000 3.284148 -0.258819
v 5.000000 2.700000 0.000000
v 5.000000 2.608000 0.155291
v 5.000000 2.338269 0.300000
v 5.000000 1.909188 0.424264
v 5.000000 1.350000 0.519615
v 5.000000 0.698811 0.579555
v 5.000000 0.000000 0.600000
v 5.000000 -0.698811 0.579555
v 5.000000 -1.350000 0.519615
v 5.000000 -1.909188 0.424264
v 5.000000 -2.338269 0.300000
v 5.000000 -2.608000 0.155291
v 5.000000 -2.700000 0.000000
v 5.000000 -2.608000 -0.155291
v 5.000000 -2.338269 -0.300000
v 5.000000 -1.909188 -0.424264
v 5.000000 -1.350000 -0.519615
v 5.000000 -0.698811 -0.579555
v 5.000000 -0.000000 -0.600000
v 5.000000 0.698811 -0.579555
v 5.000000 1.350000 -0.519615
v 5.000000 1.909188 -0.424264
v 5.000000 2.338269 -0.300000
v 5.000000 2.608000 -0.155291
v 5.120000 2.538000 0.000000
v 5.120000 2.451520 0.145974
v 5.120000 2.197972 0.282000
v 5.120000 1.794637 0.398808
v 5.120000 1.269000 0.488438
v 5.120000 0.656883 0.544782
v 5.120000 0.000000 0.564000
v 5.120000 -0.656883 0.544782
v 5.120000 -1.269000 0.488438
v 5.120000 -1.794637 0.398808
v 5.120000 -2.197972 0.282000
v 5.120000 -2.451520 0.145974
v 5.120000 -2.538000 0.000000
v 5.120000 -2.451520 -0.145974
v 5.120000 -2.197972 -0.282000
v 5.120000 -1.794637 -0.398808
v 5.120000 -1.269000 -0.488438
v 5.120000 -0.656883 -0.544782
v 5.120000 -0.000000 -0.564000
v 5.120000 0.656883 -0.544782
v 5.120000 1.269000 -0.488438
v 5.120000 1.794637 -0.398808
v 5.120000 2.197972 -0.282000
v 5.120000 2.451520 -0.145974
vt 0.204293 -0.012164
vn -1.000000 0.000000 0.000000
vt 0.183164 -0.023500
vn -1.000000 0.000000 0.000000
vt 0.149553 -0.033234
vn -1.000000 0.000000 0.000000
vt 0.105750 -0.040703
vn -1.000000 0.000000 0.000000
vt 0.054740 -0.045399
vn -1.000000 0.000000 0.000000
vt -0.000000 -0.047000
vn -1.000000 0.000000 0.000000
vt -0.054740 -0.045399
vn -1.000000 0.000000 0.000000
vt -0.105750 -0.040703
vn -1.000000 0.000000 0.000000
vt -0.149553 -0.033234
vn -1.000000 0.000000 0.000000
vt -0.183164 -0.023500
vn -1.000000 0.000000 0.000000
vt -0.204293 -0.012164
vn -1.000000 0.000000 0.000000
vt -0.211500 0.000000
vn -1.000000 0.000000 0.000000
vt -0.204293 0.012164
vn -1.000000 0.000000 0.000000
vt -0.183164 0.023500
vn -1.000000 0.000000 0.000000
vt -0.149553 0.033234
vn -1.000000 0.000000 0.000000
vt -0.105750 0.040703
vn -1.000000 0.000000 0.000000
vt -0.054740 0.045399
vn -1.000000 0.000000 0.000000
vt 0.000000 0.047000
vn -1.000000 0.000000 0.000000
vt 0.054740 0.045399
vn -1.000000 0.000000 0.000000
vt 0.105750 0.040703
vn -1.000000 0.000000 0.000000
vt 0.149553 0.033234
vn -1.000000 0.000000 0.000000
vt 0.183164 0.023500
vn -1.000000 0.000000 0.000000
vt 0.204293 0.012164
vn -1.000000 0.000000 0.000000
vt 0.211500 0.000000
vn -1.000000 0.000000 0.000000
f 144/433/433 143/434/434 142/435/435 141/436/436 140/437/437 139/438/438 138/439/439 137/440/440 136/441/441 135/442/442 134/443/443 133/444/444 132/445/445 131/446/446 130/447/447 129/448/448 128/449/449 127/450/450 126/451/451 125/452/452 124/453/453 123/454/454 122/455/455 121/456/456
vt 0.211500 0.000000
vn 1.000000 0.000000 0.000000
vt 0.204293 0.012164
vn 1.000000 0.000000 0.000000
vt 0.183164 0.023500
vn 1.000000 0.000000 0.000000
vt 0.149553 0.033234
vn 1.000000 0.000000 0.000000
vt 0.105750 0.040703
vn 1.000000 0.000000 0.000000
vt 0.054740 0.045399
vn 1.000000 0.000000 0.000000
vt 0.000000 0.047000
vn 1.000000 0.000000 0.000000
vt -0.054740 0.045399
vn 1.000000 0.000000 0.000000
vt -0.105750 0.040703
vn 1.000000 0.000000 0.000000
vt -0.149553 0.033234
vn 1.000000 0.000000 0.000000
vt -0.183164 0.023500
vn 1.000000 0.000000 0.000000
vt -0.204293 0.012164
vn 1.000000 0.000000 0.000000
vt -0.211500 0.000000
vn 1.000000 0.000000 0.000000
vt -0.204293 -0.012164
vn 1.000000 0.000000 0.000000
vt -0.183164 -0.023500
vn 1.000000 0.000000 0.000000
vt -0.149553 -0.033234
vn 1.000000 0.000000 0.000000
vt -0.105750 -0.040703
vn 1.000000 0.000000 0.000000
vt -0.054740 -0.045399
vn 1.000000 0.000000 0.000000
vt -0.000000 -0.047000
vn 1.000000 0.000000 0.000000
vt 0.054740 -0.045399
vn 1.000000 0.000000 0.000000
vt 0.105750 -0.040703
vn 1.000000 0.000000 0.000000
vt 0.149553 -0.033234
vn 1.000000 0.000000 0.000000
vt 0.183164 -0.023500
vn 1.000000 0.000000 0.000000
vt 0.204293 -0.012164
vn 1.000000 0.000000 0.000000
f 241/457/457 242/458/458 243/459/459 244/460/460 245/461/461 246/462/462 247/463/463 248/464/464 249/465/465 250/466/466 251/467/467 252/468/468 253/469/469 254/470/470 255/471/471 256/472/472 257/473/473 258/474/474 259/475/475 260/476/476 261/477/477 262/478/478 263/479/479 264/480/480
vt 0.211500 0.000000
vn -0.803557 0.595228 -0.000000
vt 0.204293 0.012164
vn -0.680608 0.489479 0.545145
vt 0.217333 0.012941
vn -0.491374 0.592612 0.638249
vt 0.225000 0.000000
vn -0.605770 0.795640 -0.000637
f 121/481/481 122/482/482 146/483/483 145/484/484
vt -0.426667 0.204293
vn -0.680608 0.489479 0.545145
vt -0.426667 0.183164
vn -0.498652 0.323329 0.804242
vt -0.416667 0.194856
vn -0.360468 0.350049 0.864597
vt -0.416667 0.217333
vn -0.491374 0.592612 0.638249
f 122/485/485 123/486/486 147/487/487 146/488/488
vt -0.426667 0.183164
vn -0.498652 0.323329 0.804242
vt -0.426667 0.149553
vn -0.386622 0.205208 0.899118
vt -0.416667 0.159099
vn -0.294052 0.213144 0.931721
vt -0.416667 0.194856
vn -0.360468 0.350049 0.864597
f 123/489/489 124/490/490 148/491/491 147/492/492
vt -0.426667 0.149553
vn -0.386622 0.205208 0.899118
vt -0.426667 0.105750
vn -0.326263 0.122587 0.937297
vt -0.416667 0.112500
vn -0.262041 0.125295 0.956889
vt -0.416667 0.159099
vn -0.294052 0.213144 0.931721
f 124/493/493 125/494/494 149/495/495 148/496/496
vt -0.426667 0.105750
vn -0.326263 0.122587 0.937297
vt -0.426667 0.054740
vn -0.296403 0.057676 0.953320
vt -0.416667 0.058234
vn -0.246772 0.058566 0.967302
vt -0.416667 0.112500
vn -0.262041 0.125295 0.956889
f 125/497/497 126/498/498 150/499/499 149/500/500
vt -0.426667 0.054740
vn -0.296403 0.057676 0.953320
vt -0.426667 0.000000
vn -0.287348 0.000000 0.957826
vt -0.416667 0.000000
vn -0.241028 -0.000006 0.970518
vt -0.416667 0.058234
vn -0.246772 0.058566 0.967302
f 126/501/501 127/502/502 151/503/503 150/504/504
vt -0.426667 0.000000
vn -0.287348 0.000000 0.957826
vt -0.426667 -0.054740
vn -0.296403 -0.057676 0.953320
vt -0.416667 -0.058234
vn -0.242960 -0.058636 0.968262
vt -0.416667 0.000000
vn -0.241028 -0.000006 0.970518
f 127/505/505 128/506/506 152/507/507 151/508/508
vt -0.426667 -0.054740
vn -0.296403 -0.057676 0.953320
vt -0.426667 -0.105750
vn -0.326263 -0.122587 0.937297
vt -0.416667 -0.112500
vn -0.254745 -0.125560 0.958822
vt -0.416667 -0.058234
vn -0.242960 -0.058636 0.968262
f 128/509/509 129/510/510 153/511/511 152/512/512
vt -0.426667 -0.105750
vn -0.326263 -0.122587 0.937297
vt -0.426667 -0.149553
vn -0.386622 -0.205208 0.899118
vt -0.416667 -0.159099
vn -0.284001 -0.213835 0.934675
vt -0.416667 -0.112500
vn -0.254745 -0.125560 0.958822
f 129/513/513 130/514/514 154/515/515 153/516/516
vt -0.426667 -0.149553
vn -0.386622 -0.205208 0.899118
vt -0.426667 -0.183164
vn -0.498652 -0.323329 0.804242
vt -0.416667 -0.194856
vn -0.349127 -0.351691 0.868576
vt -0.416667 -0.159099
vn -0.284001 -0.213835 0.934675
f 130/517/517 131/518/518 155/519/519 154/520/520
vt -0.426667 -0.183164
vn -0.498652 -0.323329 0.804242
vt -0.426667 -0.204293
vn -0.680608 -0.489479 0.545145
vt -0.416667 -0.217333
vn -0.482560 -0.595935 0.641870
vt -0.416667 -0.194856
vn -0.349127 -0.351691 0.868576
f 131/521/521 132/522/522 156/523/523 155/524/524
vt -0.204293 0.012164
vn -0.680608 -0.489479 0.545145
vt -0.211500 0.000000
vn -0.803557 -0.595228 0.000000
vt -0.225000 0.000000
vn -0.605770 -0.795640 0.000637
vt -0.217333 0.012941
vn -0.482560 -0.595935 0.641870
f 132/525/525 133/526/526 157/527/527 156/528/528
vt -0.211500 0.000000
vn -0.803557 -0.595228 0.000000
vt -0.204293 -0.012164
vn -0.680608 -0.489479 -0.545145
vt -0.217333 -0.012941
vn -0.491374 -0.592612 -0.638249
vt -0.225000 0.000000
vn -0.605770 -0.795640 0.000637
f 133/529/529 134/530/530 158/531/531 157/532/532
vt -0.426667 -0.204293
vn -0.680608 -0.489479 -0.545145
vt -0.426667 -0.183164
vn -0.498652 -0.323329 -0.804242
vt -0.416667 -0.194856
vn -0.360468 -0.350049 -0.864597
vt -0.416667 -0.217333
vn -0.491374 -0.592612 -0.638249
f 134/533/533 135/534/534 159/535/535 158/536/536
vt -0.426667 -0.183164
vn -0.498652 -0.323329 -0.804242
vt -0.426667 -0.149553
vn -0.386622 -0.205208 -0.899118
vt -0.416667 -0.159099
vn -0.294052 -0.213144 -0.931721
vt -0.416667 -0.194856
vn -0.360468 -0.350049 -0.864597
f 135/537/537 136/538/538 160/539/539 159/540/540
vt -0.426667 -0.149553
vn -0.386622 -0.205208 -0.899118
vt -0.426667 -0.105750
vn -0.326263 -0.122587 -0.937297
vt -0.416667 -0.112500
vn -0.262041 -0.125295 -0.956889
vt -0.416667 -0.159099
vn -0.294052 -0.213144 -0.931721
f 136/541/541 137/542/542 161/543/543 160/544/544
vt -0.426667 -0.105750
vn -0.326263 -0.122587 -0.937297
vt -0.426667 -0.054740
vn -0.296403 -0.057676 -0.953320
vt -0.416667 -0.058234
vn -0.246772 -0.058566 -0.967302
vt -0.416667 -0.112500
vn -0.262041 -0.125295 -0.956889
f 137/545/545 138/546/546 162/547/547 161/548/548
vt -0.426667 -0.054740
vn -0.296403 -0.057676 -0.953320
vt -0.426667 -0.000000
vn -0.287348 -0.000000 -0.957826
vt -0.416667 -0.000000
vn -0.241028 0.000006 -0.970518
vt -0.416667 -0.058234
vn -0.246772 -0.058566 -0.967302
f 138/549/549 139/550/550 163/551/551 162/552/552
vt -0.426667 -0.000000
vn -0.287348 -0.000000 -0.957826
vt -0.426667 0.054740
vn -0.296403 0.057676 -0.953320
vt -0.416667 0.058234
vn -0.242960 0.058636 -0.968262
vt -0.416667 -0.000000
vn -0.241028 0.000006 -0.970518
f 139/553/553 140/554/554 164/555/555 163/556/556
vt -0.426667 0.054740
vn -0.296403 0.057676 -0.953320
vt -0.426667 0.105750
vn -0.326263 0.122587 -0.937297
vt -0.416667 0.112500
vn -0.254745 0.125560 -0.958822
vt -0.416667 0.058234
vn -0.242960 0.058636 -0.968262
f 140/557/557 141/558/558 165/559/559 164/560/560
vt -0.426667 0.105750
vn -0.326263 0.122587 -0.937297
vt -0.426667 0.149553
vn -0.386622 0.205208 -0.899118
vt -0.416667 0.159099
vn -0.284001 0.213835 -0.934675
vt -0.416667 0.112500
vn -0.254745 0.125560 -0.958822
f 141/561/561 142/562/562 166/563/563 165/564/564
vt -0.426667 0.149553
vn -0.386622 0.205208 -0.899118
vt -0.426667 0.183164
vn -0.498652 0.323329 -0.804242
vt -0.416667 0.194856
vn -0.349127 0.351691 -0.868576
vt -0.416667 0.159099
vn -0.284001 0.213835 -0.934675
f 142/565/565 143/566/566 167/567/567 166/568/568
vt -0.426667 0.183164
vn -0.498652 0.323329 -0.804242
vt -0.426667 0.204293
vn -0.680608 0.489479 -0.545145
vt -0.416667 0.217333
vn -0.482560 0.595935 -0.641870
vt -0.416667 0.194856
vn -0.349127 0.351691 -0.868576
f 143/569/569 144/570/570 168/571/571 167/572/572
vt 0.204293 -0.012164
vn -0.680608 0.489479 -0.545145
vt 0.211500 0.000000
vn -0.803557 0.595228 -0.000000
vt 0.225000 0.000000
vn -0.605770 0.795640 -0.000637
vt 0.217333 -0.012941
vn -0.482560 0.595935 -0.641870
f 144/573/573 121/574/574 145/575/575 168/576/576
vt -0.416667 0.000000
vn -0.605770 0.795640 -0.000637
vt -0.416667 0.012941
vn -0.491374 0.592612 0.638249
vt -0.250000 0.021568
vn -0.138332 0.726539 0.673056
vt -0.250000 0.000000
vn -0.167855 0.985812 -0.000630
f 145/577/577 146/578/578 170/579/579 169/580/580
vt -0.416667 0.217333
vn -0.491374 0.592612 0.638249
vt -0.416667 0.194856
vn -0.360468 0.350049 0.864597
vt -0.250000 0.245374
vn -0.107980 0.423312 0.899526
vt -0.250000 0.273679
vn -0.138332 0.726539 0.673056
f 146/581/581 147/582/582 171/583/583 170/584/584
vt -0.416667 0.194856
vn -0.360468 0.350049 0.864597
vt -0.416667 0.159099
vn -0.294052 0.213144 0.931721
vt -0.250000 0.200347
vn -0.099960 0.255803 0.961547
vt -0.250000 0.245374
vn -0.107980 0.423312 0.899526
f 147/585/585 148/586/586 172/587/587 171/588/588
vt -0.416667 0.159099
vn -0.294052 0.213144 0.931721
vt -0.416667 0.112500
vn -0.262041 0.125295 0.956889
vt -0.250000 0.141667
vn -0.098856 0.149855 0.983753
vt -0.250000 0.200347
vn -0.099960 0.255803 0.961547
f 148/589/589 149/590/590 173/591/591 172/592/592
vt -0.416667 0.112500
vn -0.262041 0.125295 0.956889
vt -0.416667 0.058234
vn -0.246772 0.058566 0.967302
vt -0.250000 0.073332
vn -0.098749 0.069933 0.992652
vt -0.250000 0.141667
vn -0.098856 0.149855 0.983753
f 149/593/593 150/594/594 174/595/595 173/596/596
vt -0.416667 0.058234
vn -0.246772 0.058566 0.967302
vt -0.416667 0.000000
vn -0.241028 -0.000006 0.970518
vt -0.250000 0.000000
vn -0.097557 -0.000006 0.995230
vt -0.250000 0.073332
vn -0.098749 0.069933 0.992652
f 150/597/597 151/598/598 175/599/599 174/600/600
vt -0.416667 0.000000
vn -0.241028 -0.000006 0.970518
vt -0.416667 -0.058234
vn -0.242960 -0.058636 0.968262
vt -0.250000 -0.073332
vn -0.094834 -0.069964 0.993031
vt -0.250000 0.000000
vn -0.097557 -0.000006 0.995230
f 151/601/601 152/602/602 176/603/603 175/604/604
vt -0.416667 -0.058234
vn -0.242960 -0.058636 0.968262
vt -0.416667 -0.112500
vn -0.254745 -0.125560 0.958822
vt -0.250000 -0.141667
vn -0.091333 -0.149946 0.984467
vt -0.250000 -0.073332
vn -0.094834 -0.069964 0.993031
f 152/605/605 153/606/606 177/607/607 176/608/608
vt -0.416667 -0.112500
vn -0.254745 -0.125560 0.958822
vt -0.416667 -0.159099
vn -0.284001 -0.213835 0.934675
vt -0.250000 -0.200347
vn -0.089500 -0.256006 0.962523
vt -0.250000 -0.141667
vn -0.091333 -0.149946 0.984467
f 153/609/609 154/610/610 178/611/611 177/612/612
vt -0.416667 -0.159099
vn -0.284001 -0.213835 0.934675
vt -0.416667 -0.194856
vn -0.349127 -0.351691 0.868576
vt -0.250000 -0.245374
vn -0.095889 -0.423744 0.900692
vt -0.250000 -0.200347
vn -0.089500 -0.256006 0.962523
f 154/613/613 155/614/614 179/615/615 178/616/616
vt -0.416667 -0.194856
vn -0.349127 -0.351691 0.868576
vt -0.416667 -0.217333
vn -0.482560 -0.595935 0.641870
vt -0.250000 -0.273679
vn -0.128164 -0.727399 0.674140
vt -0.250000 -0.245374
vn -0.095889 -0.423744 0.900692
f 155/617/617 156/618/618 180/619/619 179/620/620
vt -0.416667 0.012941
vn -0.482560 -0.595935 0.641870
vt -0.416667 0.000000
vn -0.605770 -0.795640 0.000637
vt -0.250000 0.000000
vn -0.167855 -0.985812 0.000630
vt -0.250000 0.021568
vn -0.128164 -0.727399 0.674140
f 156/621/621 157/622/622 181/623/623 180/624/624
vt -0.416667 0.000000
vn -0.605770 -0.795640 0.000637
vt -0.416667 -0.012941
vn -0.491374 -0.592612 -0.638249
vt -0.250000 -0.021568
vn -0.138332 -0.726539 -0.673056
vt -0.250000 0.000000
vn -0.167855 -0.985812 0.000630
f 157/625/625 158/626/626 182/627/627 181/628/628
vt -0.416667 -0.217333
vn -0.491374 -0.592612 -0.638249
vt -0.416667 -0.194856
vn -0.360468 -0.350049 -0.864597
vt -0.250000 -0.245374
vn -0.107980 -0.423312 -0.899526
vt -0.250000 -0.273679
vn -0.138332 -0.726539 -0.673056
f 158/629/629 159/630/630 183/631/631 182/632/632
vt -0.416667 -0.194856
vn -0.360468 -0.350049 -0.864597
vt -0.416667 -0.159099
vn -0.294052 -0.213144 -0.931721
vt -0.250000 -0.200347
vn -0.099960 -0.255803 -0.961547
vt -0.250000 -0.245374
vn -0.107980 -0.423312 -0.899526
f 159/633/633 160/634/634 184/635/635 183/636/636
vt -0.416667 -0.159099
vn -0.294052 -0.213144 -0.931721
vt -0.416667 -0.112500
vn -0.262041 -0.125295 -0.956889
vt -0.250000 -0.141667
vn -0.098856 -0.149855 -0.983753
vt -0.250000 -0.200347
vn -0.099960 -0.255803 -0.961547
f 160/637/637 161/638/638 185/639/639 184/640/640
vt -0.416667 -0.112500
vn -0.262041 -0.125295 -0.956889
vt -0.416667 -0.058234
vn -0.246772 -0.058566 -0.967302
vt -0.250000 -0.073332
vn -0.098749 -0.069933 -0.992652
vt -0.250000 -0.141667
vn -0.098856 -0.149855 -0.983753
f 161/641/641 162/642/642 186/643/643 185/644/644
vt -0.416667 -0.058234
vn -0.246772 -0.058566 -0.967302
vt -0.416667 -0.000000
vn -0.241028 0.000006 -0.970518
vt -0.250000 -0.000000
vn -0.097557 0.000006 -0.995230
vt -0.250000 -0.073332
vn -0.098749 -0.069933 -0.992652
f 162/645/645 163/646/646 187/647/647 186/648/648
vt -0.416667 -0.000000
vn -0.241028 0.000006 -0.970518
vt -0.416667 0.058234
vn -0.242960 0.058636 -0.968262
vt -0.250000 0.073332
vn -0.094834 0.069964 -0.993031
vt -0.250000 -0.000000
vn -0.097557 0.000006 -0.995230
f 163/649/649 164/650/650 188/651/651 187/652/652
vt -0.416667 0.058234
vn -0.242960 0.058636 -0.968262
vt -0.416667 0.112500
vn -0.254745 0.125560 -0.958822
vt -0.250000 0.141667
vn -0.091333 0.149946 -0.984467
vt -0.250000 0.073332
vn -0.094834 0.069964 -0.993031
f 164/653/653 165/654/654 189/655/655 188/656/656
vt -0.416667 0.112500
vn -0.254745 0.125560 -0.958822
vt -0.416667 0.159099
vn -0.284001 0.213835 -0.934675
vt -0.250000 0.200347
vn -0.089500 0.256006 -0.962523
vt -0.250000 0.141667
vn -0.091333 0.149946 -0.984467
f 165/657/657 166/658/658 190/659/659 189/660/660
vt -0.416667 0.159099
vn -0.284001 0.213835 -0.934675
vt -0.416667 0.194856
vn -0.349127 0.351691 -0.868576
vt -0.250000 0.245374
vn -0.095889 0.423744 -0.900692
vt -0.250000 0.200347
vn -0.089500 0.256006 -0.962523
f 166/661/661 167/662/662 191/663/663 190/664/664
vt -0.416667 0.194856
vn -0.349127 0.351691 -0.868576
vt -0.416667 0.217333
vn -0.482560 0.595935 -0.641870
vt -0.250000 0.273679
vn -0.128164 0.727399 -0.674140
vt -0.250000 0.245374
vn -0.095889 0.423744 -0.900692
f 167/665/665 168/666/666 192/667/667 191/668/668
vt -0.416667 -0.012941
vn -0.482560 0.595935 -0.641870
vt -0.416667 0.000000
vn -0.605770 0.795640 -0.000637
vt -0.250000 0.000000
vn -0.167855 0.985812 -0.000630
vt -0.250000 -0.021568
vn -0.128164 0.727399 -0.674140
f 168/669/669 145/670/670 169/671/671 192/672/672
vt -0.250000 0.000000
vn -0.167855 0.985812 -0.000630
vt -0.250000 0.021568
vn -0.138332 0.726539 0.673056
vt 0.250000 0.021568
vn 0.147072 0.763853 0.628409
vt 0.250000 0.000000
vn 0.170807 0.985304 -0.000324
f 169/673/673 170/674/674 194/675/675 193/676/676
vt -0.250000 0.273679
vn -0.138332 0.726539 0.673056
vt -0.250000 0.245374
vn -0.107980 0.423312 0.899526
vt 0.250000 0.245374
vn 0.117823 0.468646 0.875493
vt 0.250000 0.273679
vn 0.147072 0.763853 0.628409
f 170/677/677 171/678/678 195/679/679 194/680/680
vt -0.250000 0.245374
vn -0.107980 0.423312 0.899526
vt -0.250000 0.200347
vn -0.099960 0.255803 0.961547
vt 0.250000 0.200347
vn 0.105507 0.288117 0.951765
vt 0.250000 0.245374
vn 0.117823 0.468646 0.875493
f 171/681/681 172/682/682 196/683/683 195/684/684
vt -0.250000 0.200347
vn -0.099960 0.255803 0.961547
vt -0.250000 0.141667
vn -0.098856 0.149855 0.983753
vt 0.250000 0.141667
vn 0.101102 0.169871 0.980266
vt 0.250000 0.200347
vn 0.105507 0.288117 0.951765
f 172/685/685 173/686/686 197/687/687 196/688/688
vt -0.250000 0.141667
vn -0.098856 0.149855 0.983753
vt -0.250000 0.073332
vn -0.098749 0.069933 0.992652
vt 0.250000 0.073332
vn 0.099236 0.079481 0.991885
vt 0.250000 0.141667
vn 0.101102 0.169871 0.980266
f 173/689/689 174/690/690 198/691/691 197/692/692
vt -0.250000 0.073332
vn -0.098749 0.069933 0.992652
vt -0.250000 0.000000
vn -0.097557 -0.000006 0.995230
vt 0.250000 0.000000
vn 0.097747 -0.000006 0.995211
vt 0.250000 0.073332
vn 0.099236 0.079481 0.991885
f 174/693/693 175/694/694 199/695/695 198/696/696
vt -0.250000 0.000000
vn -0.097557 -0.000006 0.995230
vt -0.250000 -0.073332
vn -0.094834 -0.069964 0.993031
vt 0.250000 -0.073332
vn 0.096138 -0.079517 0.992187
vt 0.250000 0.000000
vn 0.097747 -0.000006 0.995211
f 175/697/697 176/698/698 200/699/699 199/700/700
vt -0.250000 -0.073332
vn -0.094834 -0.069964 0.993031
vt -0.250000 -0.141667
vn -0.091333 -0.149946 0.984467
vt 0.250000 -0.141667
vn 0.095191 -0.169983 0.980839
vt 0.250000 -0.073332
vn 0.096138 -0.079517 0.992187
f 176/701/701 177/702/702 201/703/703 200/704/704
vt -0.250000 -0.141667
vn -0.091333 -0.149946 0.984467
vt -0.250000 -0.200347
vn -0.089500 -0.256006 0.962523
vt 0.250000 -0.200347
vn 0.097420 -0.288371 0.952550
vt 0.250000 -0.141667
vn 0.095191 -0.169983 0.980839
f 177/705/705 178/706/706 202/707/707 201/708/708
vt -0.250000 -0.200347
vn -0.089500 -0.256006 0.962523
vt -0.250000 -0.245374
vn -0.095889 -0.423744 0.900692
vt 0.250000 -0.245374
vn 0.108824 -0.469148 0.876389
vt 0.250000 -0.200347
vn 0.097420 -0.288371 0.952550
f 178/709/709 179/710/710 203/711/711 202/712/712
vt -0.250000 -0.245374
vn -0.095889 -0.423744 0.900692
vt -0.250000 -0.273679
vn -0.128164 -0.727399 0.674140
vt 0.250000 -0.273679
vn 0.140080 -0.764575 0.629129
vt 0.250000 -0.245374
vn 0.108824 -0.469148 0.876389
f 179/713/713 180/714/714 204/715/715 203/716/716
vt -0.250000 0.021568
vn -0.128164 -0.727399 0.674140
vt -0.250000 0.000000
vn -0.167855 -0.985812 0.000630
vt 0.250000 0.000000
vn 0.170807 -0.985304 0.000324
vt 0.250000 0.021568
vn 0.140080 -0.764575 0.629129
f 180/717/717 181/718/718 205/719/719 204/720/720
vt -0.250000 0.000000
vn -0.167855 -0.985812 0.000630
vt -0.250000 -0.021568
vn -0.138332 -0.726539 -0.673056
vt 0.250000 -0.021568
vn 0.147072 -0.763853 -0.628409
vt 0.250000 0.000000
vn 0.170807 -0.985304 0.000324
f 181/721/721 182/722/722 206/723/723 205/724/724
vt -0.250000 -0.273679
vn -0.138332 -0.726539 -0.673056
vt -0.250000 -0.245374
vn -0.107980 -0.423312 -0.899526
vt 0.250000 -0.245374
vn 0.117823 -0.468646 -0.875493
vt 0.250000 -0.273679
vn 0.147072 -0.763853 -0.628409
f 182/725/725 183/726/726 207/727/727 206/728/728
vt -0.250000 -0.245374
vn -0.107980 -0.423312 -0.899526
vt -0.250000 -0.200347
vn -0.099960 -0.255803 -0.961547
vt 0.250000 -0.200347
vn 0.105507 -0.288117 -0.951765
vt 0.250000 -0.245374
vn 0.117823 -0.468646 -0.875493
f 183/729/729 184/730/730 208/731/731 207/732/732
vt -0.250000 -0.200347
vn -0.099960 -0.255803 -0.961547
vt -0.250000 -0.141667
vn -0.098856 -0.149855 -0.983753
vt 0.250000 -0.141667
vn 0.101102 -0.169871 -0.980266
vt 0.250000 -0.200347
vn 0.105507 -0.288117 -0.951765
f 184/733/733 185/734/734 209/735/735 208/736/736
vt -0.250000 -0.141667
vn -0.098856 -0.149855 -0.983753
vt -0.250000 -0.073332
vn -0.098749 -0.069933 -0.992652
vt 0.250000 -0.073332
vn 0.099236 -0.079481 -0.991885
vt 0.250000 -0.141667
vn 0.101102 -0.169871 -0.980266
f 185/737/737 186/738/738 210/739/739 209/740/740
vt -0.250000 -0.073332
vn -0.098749 -0.069933 -0.992652
vt -0.250000 -0.000000
vn -0.097557 0.000006 -0.995230
vt 0.250000 -0.000000
vn 0.097747 0.000006 -0.995211
vt 0.250000 -0.073332
vn 0.099236 -0.079481 -0.991885
f 186/741/741 187/742/742 211/743/743 210/744/744
vt -0.250000 -0.000000
vn -0.097557 0.000006 -0.995230
vt -0.250000 0.073332
vn -0.094834 0.069964 -0.993031
vt 0.250000 0.073332
vn 0.096138 0.079517 -0.992187
vt 0.250000 -0.000000
vn 0.097747 0.000006 -0.995211
f 187/745/745 188/746/746 212/747/747 211/748/748
vt -0.250000 0.073332
vn -0.094834 0.069964 -0.993031
vt -0.250000 0.141667
vn -0.091333 0.149946 -0.984467
vt 0.250000 0.141667
vn 0.095191 0.169983 -0.980839
vt 0.250000 0.073332
vn 0.096138 0.079517 -0.992187
f 188/749/749 189/750/750 213/751/751 212/752/752
vt -0.250000 0.141667
vn -0.091333 0.149946 -0.984467
vt -0.250000 0.200347
vn -0.089500 0.256006 -0.962523
vt 0.250000 0.200347
vn 0.097420 0.288371 -0.952550
vt 0.250000 0.141667
vn 0.095191 0.169983 -0.980839
f 189/753/753 190/754/754 214/755/755 213/756/756
vt -0.250000 0.200347
vn -0.089500 0.256006 -0.962523
vt -0.250000 0.245374
vn -0.095889 0.423744 -0.900692
vt 0.250000 0.245374
vn 0.108824 0.469148 -0.876389
vt 0.250000 0.200347
vn 0.097420 0.288371 -0.952550
f 190/757/757 191/758/758 215/759/759 214/760/760
vt -0.250000 0.245374
vn -0.095889 0.423744 -0.900692
vt -0.250000 0.273679
vn -0.128164 0.727399 -0.674140
vt 0.250000 0.273679
vn 0.140080 0.764575 -0.629129
vt 0.250000 0.245374
vn 0.108824 0.469148 -0.876389
f 191/761/761 192/762/762 216/763/763 215/764/764
vt -0.250000 -0.021568
vn -0.128164 0.727399 -0.674140
vt -0.250000 0.000000
vn -0.167855 0.985812 -0.000630
vt 0.250000 0.000000
vn 0.170807 0.985304 -0.000324
vt 0.250000 -0.021568
vn 0.140080 0.764575 -0.629129
f 192/765/765 169/766/766 193/767/767 216/768/768
vt 0.250000 0.000000
vn 0.170807 0.985304 -0.000324
vt 0.250000 0.021568
vn 0.147072 0.763853 0.628409
vt 0.416667 0.012941
vn 0.499900 0.630910 0.593340
vt 0.416667 0.000000
vn 0.597998 0.801497 -0.000328
f 193/769/769 194/770/770 218/771/771 217/772/772
vt 0.250000 0.273679
vn 0.147072 0.763853 0.628409
vt 0.250000 0.245374
vn 0.117823 0.468646 0.875493
vt 0.416667 0.194856
vn 0.370572 0.395495 0.840393
vt 0.416667 0.217333
vn 0.499900 0.630910 0.593340
f 194/773/773 195/774/774 219/775/775 218/776/776
vt 0.250000 0.245374
vn 0.117823 0.468646 0.875493
vt 0.250000 0.200347
vn 0.105507 0.288117 0.951765
vt 0.416667 0.159099
vn 0.299688 0.245408 0.921934
vt 0.416667 0.194856
vn 0.370572 0.395495 0.840393
f 195/777/777 196/778/778 220/779/779 219/780/780
vt 0.250000 0.200347
vn 0.105507 0.288117 0.951765
vt 0.250000 0.141667
vn 0.101102 0.169871 0.980266
vt 0.416667 0.112500
vn 0.264332 0.145247 0.953432
vt 0.416667 0.159099
vn 0.299688 0.245408 0.921934
f 196/781/781 197/782/782 221/783/783 220/784/784
vt 0.250000 0.141667
vn 0.101102 0.169871 0.980266
vt 0.250000 0.073332
vn 0.099236 0.079481 0.991885
vt 0.416667 0.058234
vn 0.247288 0.068076 0.966548
vt 0.416667 0.112500
vn 0.264332 0.145247 0.953432
f 197/785/785 198/786/786 222/787/787 221/788/788
vt 0.250000 0.073332
vn 0.099236 0.079481 0.991885
vt 0.250000 0.000000
vn 0.097747 -0.000006 0.995211
vt 0.416667 0.000000
vn 0.241235 -0.000006 0.970467
vt 0.416667 0.058234
vn 0.247288 0.068076 0.966548
f 198/789/789 199/790/790 223/791/791 222/792/792
vt 0.250000 0.000000
vn 0.097747 -0.000006 0.995211
vt 0.250000 -0.073332
vn 0.096138 -0.079517 0.992187
vt 0.416667 -0.058234
vn 0.244271 -0.068148 0.967309
vt 0.416667 0.000000
vn 0.241235 -0.000006 0.970467
f 199/793/793 200/794/794 224/795/795 223/796/796
vt 0.250000 -0.073332
vn 0.096138 -0.079517 0.992187
vt 0.250000 -0.141667
vn 0.095191 -0.169983 0.980839
vt 0.416667 -0.112500
vn 0.258600 -0.145517 0.954961
vt 0.416667 -0.058234
vn 0.244271 -0.068148 0.967309
f 200/797/797 201/798/798 225/799/799 224/800/800
vt 0.250000 -0.141667
vn 0.095191 -0.169983 0.980839
vt 0.250000 -0.200347
vn 0.097420 -0.288371 0.952550
vt 0.416667 -0.159099
vn 0.291921 -0.246096 0.924239
vt 0.416667 -0.112500
vn 0.258600 -0.145517 0.954961
f 201/801/801 202/802/802 226/803/803 225/804/804
vt 0.250000 -0.200347
vn 0.097420 -0.288371 0.952550
vt 0.250000 -0.245374
vn 0.108824 -0.469148 0.876389
vt 0.416667 -0.194856
vn 0.362146 -0.397021 0.843341
vt 0.416667 -0.159099
vn 0.291921 -0.246096 0.924239
f 202/805/805 203/806/806 227/807/807 226/808/808
vt 0.250000 -0.245374
vn 0.108824 -0.469148 0.876389
vt 0.250000 -0.273679
vn 0.140080 -0.764575 0.629129
vt 0.416667 -0.217333
vn 0.493849 -0.633449 0.595697
vt 0.416667 -0.194856
vn 0.362146 -0.397021 0.843341
f 203/809/809 204/810/810 228/811/811 227/812/812
vt 0.250000 0.021568
vn 0.140080 -0.764575 0.629129
vt 0.250000 0.000000
vn 0.170807 -0.985304 0.000324
vt 0.416667 0.000000
vn 0.597998 -0.801497 0.000328
vt 0.416667 0.012941
vn 0.493849 -0.633449 0.595697
f 204/813/813 205/814/814 229/815/815 228/816/816
vt 0.250000 0.000000
vn 0.170807 -0.985304 0.000324
vt 0.250000 -0.021568
vn 0.147072 -0.763853 -0.628409
vt 0.416667 -0.012941
vn 0.499900 -0.630910 -0.593340
vt 0.416667 0.000000
vn 0.597998 -0.801497 0.000328
f 205/817/817 206/818/818 230/819/819 229/820/820
vt 0.250000 -0.273679
vn 0.147072 -0.763853 -0.628409
vt 0.250000 -0.245374
vn 0.117823 -0.468646 -0.875493
vt 0.416667 -0.194856
vn 0.370572 -0.395495 -0.840393
vt 0.416667 -0.217333
vn 0.499900 -0.630910 -0.593340
f 206/821/821 207/822/822 231/823/823 230/824/824
vt 0.250000 -0.245374
vn 0.117823 -0.468646 -0.875493
vt 0.250000 -0.200347
vn 0.105507 -0.288117 -0.951765
vt 0.416667 -0.159099
vn 0.299688 -0.245408 -0.921934
vt 0.416667 -0.194856
vn 0.370572 -0.395495 -0.840393
f 207/825/825 208/826/826 232/827/827 231/828/828
vt 0.250000 -0.200347
vn 0.105507 -0.288117 -0.951765
vt 0.250000 -0.141667
vn 0.101102 -0.169871 -0.980266
vt 0.416667 -0.112500
vn 0.264332 -0.145247 -0.953432
vt 0.416667 -0.159099
vn 0.299688 -0.245408 -0.921934
f 208/829/829 209/830/830 233/831/831 232/832/832
vt 0.250000 -0.141667
vn 0.101102 -0.169871 -0.980266
vt 0.250000 -0.073332
vn 0.099236 -0.079481 -0.991885
vt 0.416667 -0.058234
vn 0.247288 -0.068076 -0.966548
vt 0.416667 -0.112500
vn 0.264332 -0.145247 -0.953432
f 209/833/833 210/834/834 234/835/835 233/836/836
vt 0.250000 -0.073332
vn 0.099236 -0.079481 -0.991885
vt 0.250000 -0.000000
vn 0.097747 0.000006 -0.995211
vt 0.416667 -0.000000
vn 0.241235 0.000006 -0.970467
vt 0.416667 -0.058234
vn 0.247288 -0.068076 -0.966548
f 210/837/837 211/838/838 235/839/839 234/840/840
vt 0.250000 -0.000000
vn 0.097747 0.000006 -0.995211
vt 0.250000 0.073332
vn 0.096138 0.079517 -0.992187
vt 0.416667 0.058234
vn 0.244271 0.068148 -0.967309
vt 0.416667 -0.000000
vn 0.241235 0.000006 -0.970467
f 211/841/841 212/842/842 236/843/843 235/844/844
vt 0.250000 0.073332
vn 0.096138 0.079517 -0.992187
vt 0.250000 0.141667
vn 0.095191 0.169983 -0.980839
vt 0.416667 0.112500
vn 0.258600 0.145517 -0.954961
vt 0.416667 0.058234
vn 0.244271 0.068148 -0.967309
f 212/845/845 213/846/846 237/847/847 236/848/848
vt 0.250000 0.141667
vn 0.095191 0.169983 -0.980839
vt 0.250000 0.200347
vn 0.097420 0.288371 -0.952550
vt 0.416667 0.159099
vn 0.291921 0.246096 -0.924239
vt 0.416667 0.112500
vn 0.258600 0.145517 -0.954961
f 213/849/849 214/850/850 238/851/851 237/852/852
vt 0.250000 0.200347
vn 0.097420 0.288371 -0.952550
vt 0.250000 0.245374
vn 0.108824 0.469148 -0.876389
vt 0.416667 0.194856
vn 0.362146 0.397021 -0.843341
vt 0.416667 0.159099
vn 0.291921 0.246096 -0.924239
f 214/853/853 215/854/854 239/855/855 238/856/856
vt 0.250000 0.245374
vn 0.108824 0.469148 -0.876389
vt 0.250000 0.273679
vn 0.140080 0.764575 -0.629129
vt 0.416667 0.217333
vn 0.493849 0.633449 -0.595697
vt 0.416667 0.194856
vn 0.362146 0.397021 -0.843341
f 215/857/857 216/858/858 240/859/859 239/860/860
vt 0.250000 -0.021568
vn 0.140080 0.764575 -0.629129
vt 0.250000 0.000000
vn 0.170807 0.985304 -0.000324
vt 0.416667 0.000000
vn 0.597998 0.801497 -0.000328
vt 0.416667 -0.012941
vn 0.493849 0.633449 -0.595697
f 216/861/861 193/862/862 217/863/863 240/864/864
vt 0.225000 0.000000
vn 0.597998 0.801497 -0.000328
vt 0.217333 0.012941
vn 0.499900 0.630910 0.593340
vt 0.204293 0.012164
vn 0.680608 0.489479 0.545145
vt 0.211500 0.000000
vn 0.803557 0.595228 -0.000000
f 217/865/865 218/866/866 242/867/867 241/868/868
vt 0.416667 0.217333
vn 0.499900 0.630910 0.593340
vt 0.416667 0.194856
vn 0.370572 0.395495 0.840393
vt 0.426667 0.183164
vn 0.498652 0.323329 0.804242
vt 0.426667 0.204293
vn 0.680608 0.489479 0.545145
f 218/869/869 219/870/870 243/871/871 242/872/872
vt 0.416667 0.194856
vn 0.370572 0.395495 0.840393
vt 0.416667 0.159099
vn 0.299688 0.245408 0.921934
vt 0.426667 0.149553
vn 0.386622 0.205208 0.899118
vt 0.426667 0.183164
vn 0.498652 0.323329 0.804242
f 219/873/873 220/874/874 244/875/875 243/876/876
vt 0.416667 0.159099
vn 0.299688 0.245408 0.921934
vt 0.416667 0.112500
vn 0.264332 0.145247 0.953432
vt 0.426667 0.105750
vn 0.326263 0.122587 0.937297
vt 0.426667 0.149553
vn 0.386622 0.205208 0.899118
f 220/877/877 221/878/878 245/879/879 244/880/880
vt 0.416667 0.112500
vn 0.264332 0.145247 0.953432
vt 0.416667 0.058234
vn 0.247288 0.068076 0.966548
vt 0.426667 0.054740
vn 0.296403 0.057676 0.953320
vt 0.426667 0.105750
vn 0.326263 0.122587 0.937297
f 221/881/881 222/882/882 246/883/883 245/884/884
vt 0.416667 0.058234
vn 0.247288 0.068076 0.966548
vt 0.416667 0.000000
vn 0.241235 -0.000006 0.970467
vt 0.426667 0.000000
vn 0.287348 0.000000 0.957826
vt 0.426667 0.054740
vn 0.296403 0.057676 0.953320
f 222/885/885 223/886/886 247/887/887 246/888/888
vt 0.416667 0.000000
vn 0.241235 -0.000006 0.970467
vt 0.416667 -0.058234
vn 0.244271 -0.068148 0.967309
vt 0.426667 -0.054740
vn 0.296403 -0.057676 0.953320
vt 0.426667 0.000000
vn 0.287348 0.000000 0.957826
f 223/889/889 224/890/890 248/891/891 247/892/892
vt 0.416667 -0.058234
vn 0.244271 -0.068148 0.967309
vt 0.416667 -0.112500
vn 0.258600 -0.145517 0.954961
vt 0.426667 -0.105750
vn 0.326263 -0.122587 0.937297
vt 0.426667 -0.054740
vn 0.296403 -0.057676 0.953320
f 224/893/893 225/894/894 249/895/895 248/896/896
vt 0.416667 -0.112500
vn 0.258600 -0.145517 0.954961
vt 0.416667 -0.159099
vn 0.291921 -0.246096 0.924239
vt 0.426667 -0.149553
vn 0.386622 -0.205208 0.899118
vt 0.426667 -0.105750
vn 0.326263 -0.122587 0.937297
f 225/897/897 226/898/898 250/899/899 249/900/900
vt 0.416667 -0.159099
vn 0.291921 -0.246096 0.924239
vt 0.416667 -0.194856
vn 0.362146 -0.397021 0.843341
vt 0.426667 -0.183164
vn 0.498652 -0.323329 0.804242
vt 0.426667 -0.149553
vn 0.386622 -0.205208 0.899118
f 226/901/901 227/902/902 251/903/903 250/904/904
vt 0.416667 -0.194856
vn 0.362146 -0.397021 0.843341
vt 0.416667 -0.217333
vn 0.493849 -0.633449 0.595697
vt 0.426667 -0.204293
vn 0.680608 -0.489479 0.545145
vt 0.426667 -0.183164
vn 0.498652 -0.323329 0.804242
f 227/905/905 228/906/906 252/907/907 251/908/908
vt -0.217333 0.012941
vn 0.493849 -0.633449 0.595697
vt -0.225000 0.000000
vn 0.597998 -0.801497 0.000328
vt -0.211500 0.000000
vn 0.803557 -0.595228 0.000000
vt -0.204293 0.012164
vn 0.680608 -0.489479 0.545145
f 228/909/909 229/910/910 253/911/911 252/912/912
vt -0.225000 0.000000
vn 0.597998 -0.801497 0.000328
vt -0.217333 -0.012941
vn 0.499900 -0.630910 -0.593340
vt -0.204293 -0.012164
vn 0.680608 -0.489479 -0.545145
vt -0.211500 0.000000
vn 0.803557 -0.595228 0.000000
f 229/913/913 230/914/914 254/915/915 253/916/916
vt 0.416667 -0.217333
vn 0.499900 -0.630910 -0.593340
vt 0.416667 -0.194856
vn 0.370572 -0.395495 -0.840393
vt 0.426667 -0.183164
vn 0.498652 -0.323329 -0.804242
vt 0.426667 -0.204293
vn 0.680608 -0.489479 -0.545145
f 230/917/917 231/918/918 255/919/919 254/920/920
vt 0.416667 -0.194856
vn 0.370572 -0.395495 -0.840393
vt 0.416667 -0.159099
vn 0.299688 -0.245408 -0.921934
vt 0.426667 -0.149553
vn 0.386622 -0.205208 -0.899118
vt 0.426667 -0.183164
vn 0.498652 -0.323329 -0.804242
f 231/921/921 232/922/922 256/923/923 255/924/924
vt 0.416667 -0.159099
vn 0.299688 -0.245408 -0.921934
vt 0.416667 -0.112500
vn 0.264332 -0.145247 -0.953432
vt 0.426667 -0.105750
vn 0.326263 -0.122587 -0.937297
vt 0.426667 -0.149553
vn 0.386622 -0.205208 -0.899118
f 232/925/925 233/926/926 257/927/927 256/928/928
vt 0.416667 -0.112500
vn 0.264332 -0.145247 -0.953432
vt 0.416667 -0.058234
vn 0.247288 -0.068076 -0.966548
vt 0.426667 -0.054740
vn 0.296403 -0.057676 -0.953320
vt 0.426667 -0.105750
vn 0.326263 -0.122587 -0.937297
f 233/929/929 234/930/930 258/931/931 257/932/932
vt 0.416667 -0.058234
vn 0.247288 -0.068076 -0.966548
vt 0.416667 -0.000000
vn 0.241235 0.000006 -0.970467
vt 0.426667 -0.000000
vn 0.287348 0.000000 -0.957826
vt 0.426667 -0.054740
vn 0.296403 -0.057676 -0.953320
f 234/933/933 235/934/934 259/935/935 258/936/936
vt 0.416667 -0.000000
vn 0.241235 0.000006 -0.970467
vt 0.416667 0.058234
vn 0.244271 0.068148 -0.967309
vt 0.426667 0.054740
vn 0.296403 0.057676 -0.953320
vt 0.426667 -0.000000
vn 0.287348 0.000000 -0.957826
f 235/937/937 236/938/938 260/939/939 259/940/940
vt 0.416667 0.058234
vn 0.244271 0.068148 -0.967309
vt 0.416667 0.112500
vn 0.258600 0.145517 -0.954961
vt 0.426667 0.105750
vn 0.326263 0.122587 -0.937297
vt 0.426667 0.054740
vn 0.296403 0.057676 -0.953320
f 236/941/941 237/942/942 261/943/943 260/944/944
vt 0.416667 0.112500
vn 0.258600 0.145517 -0.954961
vt 0.416667 0.159099
vn 0.291921 0.246096 -0.924239
vt 0.426667 0.149553
vn 0.386622 0.205208 -0.899118
vt 0.426667 0.105750
vn 0.326263 0.122587 -0.937297
f 237/945/945 238/946/946 262/947/947 261/948/948
vt 0.416667 0.159099
vn 0.291921 0.246096 -0.924239
vt 0.416667 0.194856
vn 0.362146 0.397021 -0.843341
vt 0.426667 0.183164
vn 0.498652 0.323329 -0.804242
vt 0.426667 0.149553
vn 0.386622 0.205208 -0.899118
f 238/949/949 239/950/950 263/951/951 262/952/952
vt 0.416667 0.194856
vn 0.362146 0.397021 -0.843341
vt 0.416667 0.217333
vn 0.493849 0.633449 -0.595697
vt 0.426667 0.204293
vn 0.680608 0.489479 -0.545145
vt 0.426667 0.183164
vn 0.498652 0.323329 -0.804242
f 239/953/953 240/954/954 264/955/955 263/956/956
vt 0.217333 -0.012941
vn 0.493849 0.633449 -0.595697
vt 0.225000 0.000000
vn 0.597998 0.801497 -0.000328
vt 0.211500 0.000000
vn 0.803557 0.595228 -0.000000
vt 0.204293 -0.012164
vn 0.680608 0.489479 -0.545145
f 240/957/957 217/958/958 241/959/959 264/960/960
v -3.630596 -3.350000 0.556940
v -3.536647 -3.350000 0.462992
v -2.863353 -3.350000 0.462992
v -2.769404 -3.350000 0.556940
v -2.769404 -3.350000 0.643060
v -2.863353 -3.350000 0.737008
v -3.536647 -3.350000 0.737008
v -3.630596 -3.350000 0.643060
v -3.750000 -3.230000 0.545000
v -3.630000 -3.230000 0.425000
v -2.770000 -3.230000 0.425000
v -2.650000 -3.230000 0.545000
v -2.650000 -3.230000 0.655000
v -2.770000 -3.230000 0.775000
v -3.630000 -3.230000 0.775000
v -3.750000 -3.230000 0.655000
v -3.750000 3.230000 0.545000
v -3.630000 3.230000 0.425000
v -2.770000 3.230000 0.425000
v -2.650000 3.230000 0.545000
v -2.650000 3.230000 0.655000
v -2.770000 3.230000 0.775000
v -3.630000 3.230000 0.775000
v -3.750000 3.230000 0.655000
v -3.630596 3.350000 0.556940
v -3.536647 3.350000 0.462992
v -2.863353 3.350000 0.462992
v -2.769404 3.350000 0.556940
v -2.769404 3.350000 0.643060
v -2.863353 3.350000 0.737008
v -3.536647 3.350000 0.737008
v -3.630596 3.350000 0.643060
vt -0.302550 0.046412
vn 0.000000 -1.000000 0.000000
vt -0.294721 0.038583
vn 0.000000 -1.000000 0.000000
vt -0.238613 0.038583
vn 0.000000 -1.000000 0.000000
vt -0.230784 0.046412
vn 0.000000 -1.000000 0.000000
vt -0.230784 0.053588
vn 0.000000 -1.000000 0.000000
vt -0.238613 0.061417
vn 0.000000 -1.000000 0.000000
vt -0.294721 0.061417
vn 0.000000 -1.000000 0.000000
vt -0.302550 0.053588
vn 0.000000 -1.000000 0.000000
f 265/961/961 266/962/962 267/963/963 268/964/964 269/965/965 270/966/966 271/967/967 272/968/968
vt -0.302550 0.053588
vn 0.000000 1.000000 0.000000
vt -0.294721 0.061417
vn 0.000000 1.000000 0.000000
vt -0.238613 0.061417
vn 0.000000 1.000000 0.000000
vt -0.230784 0.053588
vn 0.000000 1.000000 0.000000
vt -0.230784 0.046412
vn 0.000000 1.000000 0.000000
vt -0.238613 0.038583
vn 0.000000 1.000000 0.000000
vt -0.294721 0.038583
vn 0.000000 1.000000 0.000000
vt -0.302550 0.046412
vn 0.000000 1.000000 0.000000
f 296/969/969 295/970/970 294/971/971 293/972/972 292/973/973 291/974/974 290/975/975 289/976/976
vt -0.312500 0.045417
vn -0.559190 -0.612056 -0.559190
vt -0.302500 0.035417
vn -0.559190 -0.612056 -0.559190
vt -0.294721 0.038583
vn -0.559190 -0.612056 -0.559190
vt -0.302550 0.046412
vn -0.559190 -0.612056 -0.559190
f 273/977/977 274/978/978 266/979/979 265/980/980
vt -0.302500 -0.269167
vn 0.000000 -0.301836 -0.953360
vt -0.230833 -0.269167
vn 0.000000 -0.301836 -0.953360
vt -0.238613 -0.279167
vn 0.000000 -0.301836 -0.953360
vt -0.294721 -0.279167
vn 0.000000 -0.301836 -0.953360
f 274/981/981 275/982/982 267/983/983 266/984/984
vt -0.230833 0.035417
vn 0.559190 -0.612056 -0.559190
vt -0.220833 0.045417
vn 0.559190 -0.612056 -0.559190
vt -0.230784 0.046412
vn 0.559190 -0.612056 -0.559190
vt -0.238613 0.038583
vn 0.559190 -0.612056 -0.559190
f 275/985/985 276/986/986 268/987/987 267/988/988
vt -0.269167 0.045417
vn 0.708864 -0.705346 0.000000
vt -0.269167 0.054583
vn 0.708864 -0.705346 0.000000
vt -0.279167 0.053588
vn 0.708864 -0.705346 0.000000
vt -0.279167 0.046412
vn 0.708864 -0.705346 0.000000
f 276/989/989 277/990/990 269/991/991 268/992/992
vt -0.220833 0.054583
vn 0.559190 -0.612056 0.559190
vt -0.230833 0.064583
vn 0.559190 -0.612056 0.559190
vt -0.238613 0.061417
vn 0.559190 -0.612056 0.559190
vt -0.230784 0.053588
vn 0.559190 -0.612056 0.559190
f 277/993/993 278/994/994 270/995/995 269/996/996
vt -0.230833 -0.269167
vn 0.000000 -0.301836 0.953360
vt -0.302500 -0.269167
vn 0.000000 -0.301836 0.953360
vt -0.294721 -0.279167
vn 0.000000 -0.301836 0.953360
vt -0.238613 -0.279167
vn 0.000000 -0.301836 0.953360
f 278/997/997 279/998/998 271/999/999 270/1000/1000
vt -0.302500 0.064583
vn -0.559190 -0.612056 0.559190
vt -0.312500 0.054583
vn -0.559190 -0.612056 0.559190
vt -0.302550 0.053588
vn -0.559190 -0.612056 0.559190
vt -0.294721 0.061417
vn -0.559190 -0.612056 0.559190
f 279/1001/1001 280/1002/1002 272/1003/1003 271/1004/1004
vt -0.269167 0.054583
vn -0.708864 -0.705346 -0.000000
vt -0.269167 0.045417
vn -0.708864 -0.705346 -0.000000
vt -0.279167 0.046412
vn -0.708864 -0.705346 -0.000000
vt -0.279167 0.053588
vn -0.708864 -0.705346 -0.000000
f 280/1005/1005 273/1006/1006 265/1007/1007 272/1008/1008
vt -0.312500 0.269167
vn -0.707107 0.000000 -0.707107
vt -0.302500 0.269167
vn -0.707107 0.000000 -0.707107
vt -0.302500 -0.269167
vn -0.707107 0.000000 -0.707107
vt -0.312500 -0.269167
vn -0.707107 0.000000 -0.707107
f 281/1009/1009 282/1010/1010 274/1011/1011 273/1012/1012
vt -0.302500 0.269167
vn 0.000000 0.000000 -1.000000
vt -0.230833 0.269167
vn 0.000000 0.000000 -1.000000
vt -0.230833 -0.269167
vn 0.000000 0.000000 -1.000000
vt -0.302500 -0.269167
vn 0.000000 0.000000 -1.000000
f 282/1013/1013 283/1014/1014 275/1015/1015 274/1016/1016
vt -0.230833 0.269167
vn 0.707107 0.000000 -0.707107
vt -0.220833 0.269167
vn 0.707107 0.000000 -0.707107
vt -0.220833 -0.269167
vn 0.707107 0.000000 -0.707107
vt -0.230833 -0.269167
vn 0.707107 0.000000 -0.707107
f 283/1017/1017 284/1018/1018 276/1019/1019 275/1020/1020
vt 0.269167 0.045417
vn 1.000000 0.000000 -0.000000
vt 0.269167 0.054583
vn 1.000000 0.000000 -0.000000
vt -0.269167 0.054583
vn 1.000000 0.000000 -0.000000
vt -0.269167 0.045417
vn 1.000000 0.000000 -0.000000
f 284/1021/1021 285/1022/1022 277/1023/1023 276/1024/1024
vt -0.220833 0.269167
vn 0.707107 0.000000 0.707107
vt -0.230833 0.269167
vn 0.707107 0.000000 0.707107
vt -0.230833 -0.269167
vn 0.707107 0.000000 0.707107
vt -0.220833 -0.269167
vn 0.707107 0.000000 0.707107
f 285/1025/1025 286/1026/1026 278/1027/1027 277/1028/1028
vt -0.230833 0.269167
vn 0.000000 0.000000 1.000000
vt -0.302500 0.269167
vn 0.000000 0.000000 1.000000
vt -0.302500 -0.269167
vn 0.000000 0.000000 1.000000
vt -0.230833 -0.269167
vn 0.000000 0.000000 1.000000
f 286/1029/1029 287/1030/1030 279/1031/1031 278/1032/1032
vt -0.302500 0.269167
vn -0.707107 0.000000 0.707107
vt -0.312500 0.269167
vn -0.707107 0.000000 0.707107
vt -0.312500 -0.269167
vn -0.707107 0.000000 0.707107
vt -0.302500 -0.269167
vn -0.707107 0.000000 0.707107
f 287/1033/1033 288/1034/1034 280/1035/1035 279/1036/1036
vt 0.269167 0.054583
vn -1.000000 0.000000 -0.000000
vt 0.269167 0.045417
vn -1.000000 0.000000 -0.000000
vt -0.269167 0.045417
vn -1.000000 0.000000 -0.000000
vt -0.269167 0.054583
vn -1.000000 0.000000 -0.000000
f 288/1037/1037 281/1038/1038 273/1039/1039 280/1040/1040
vt -0.302550 0.046412
vn -0.559190 0.612056 -0.559190
vt -0.294721 0.038583
vn -0.559190 0.612056 -0.559190
vt -0.302500 0.035417
vn -0.559190 0.612056 -0.559190
vt -0.312500 0.045417
vn -0.559190 0.612056 -0.559190
f 289/1041/1041 290/1042/1042 282/1043/1043 281/1044/1044
vt -0.294721 0.279167
vn 0.000000 0.301836 -0.953360
vt -0.238613 0.279167
vn 0.000000 0.301836 -0.953360
vt -0.230833 0.269167
vn 0.000000 0.301836 -0.953360
vt -0.302500 0.269167
vn 0.000000 0.301836 -0.953360
f 290/1045/1045 291/1046/1046 283/1047/1047 282/1048/1048
vt -0.238613 0.038583
vn 0.559190 0.612056 -0.559190
vt -0.230784 0.046412
vn 0.559190 0.612056 -0.559190
vt -0.220833 0.045417
vn 0.559190 0.612056 -0.559190
vt -0.230833 0.035417
vn 0.559190 0.612056 -0.559190
f 291/1049/1049 292/1050/1050 284/1051/1051 283/1052/1052
vt 0.279167 0.046412
vn 0.708864 0.705346 -0.000000
vt 0.279167 0.053588
vn 0.708864 0.705346 -0.000000
vt 0.269167 0.054583
vn 0.708864 0.705346 -0.000000
vt 0.269167 0.045417
vn 0.708864 0.705346 -0.000000
f 292/1053/1053 293/1054/1054 285/1055/1055 284/1056/1056
vt -0.230784 0.053588
vn 0.559190 0.612056 0.559190
vt -0.238613 0.061417
vn 0.559190 0.612056 0.559190
vt -0.230833 0.064583
vn 0.559190 0.612056 0.559190
vt -0.220833 0.054583
vn 0.559190 0.612056 0.559190
f 293/1057/1057 294/1058/1058 286/1059/1059 285/1060/1060
vt -0.238613 0.279167
vn 0.000000 0.301836 0.953360
vt -0.294721 0.279167
vn 0.000000 0.301836 0.953360
vt -0.302500 0.269167
vn 0.000000 0.301836 0.953360
vt -0.230833 0.269167
vn 0.000000 0.301836 0.953360
f 294/1061/1061 295/1062/1062 287/1063/1063 286/1064/1064
vt -0.294721 0.061417
vn -0.559190 0.612056 0.559190
vt -0.302550 0.053588
vn -0.559190 0.612056 0.559190
vt -0.312500 0.054583
vn -0.559190 0.612056 0.559190
vt -0.302500 0.064583
vn -0.559190 0.612056 0.559190
f 295/1065/1065 296/1066/1066 288/1067/1067 287/1068/1068
vt 0.279167 0.053588
vn -0.708864 0.705346 0.000000
vt 0.279167 0.046412
vn -0.708864 0.705346 0.000000
vt 0.269167 0.045417
vn -0.708864 0.705346 0.000000
vt 0.269167 0.054583
vn -0.708864 0.705346 0.000000
f 296/1069/1069 289/1070/1070 281/1071/1071 288/1072/1072
v 2.769404 -3.350000 0.556940
v 2.863353 -3.350000 0.462992
v 3.536647 -3.350000 0.462992
v 3.630596 -3.350000 0.556940
v 3.630596 -3.350000 0.643060
v 3.536647 -3.350000 0.737008
v 2.863353 -3.350000 0.737008
v 2.769404 -3.350000 0.643060
v 2.650000 -3.230000 0.545000
v 2.770000 -3.230000 0.425000
v 3.630000 -3.230000 0.425000
v 3.750000 -3.230000 0.545000
v 3.750000 -3.230000 0.655000
v 3.630000 -3.230000 0.775000
v 2.770000 -3.230000 0.775000
v 2.650000 -3.230000 0.655000
v 2.650000 3.230000 0.545000
v 2.770000 3.230000 0.425000
v 3.630000 3.230000 0.425000
v 3.750000 3.230000 0.545000
v 3.750000 3.230000 0.655000
v 3.630000 3.230000 0.775000
v 2.770000 3.230000 0.775000
v 2.650000 3.230000 0.655000
v 2.769404 3.350000 0.556940
v 2.863353 3.350000 0.462992
v 3.536647 3.350000 0.462992
v 3.630596 3.350000 0.556940
v 3.630596 3.350000 0.643060
v 3.536647 3.350000 0.737008
v 2.863353 3.350000 0.737008
v 2.769404 3.350000 0.643060
vt 0.230784 0.046412
vn 0.000000 -1.000000 0.000000
vt 0.238613 0.038583
vn 0.000000 -1.000000 0.000000
vt 0.294721 0.038583
vn 0.000000 -1.000000 0.000000
vt 0.302550 0.046412
vn 0.000000 -1.000000 0.000000
vt 0.302550 0.053588
vn 0.000000 -1.000000 0.000000
vt 0.294721 0.061417
vn 0.000000 -1.000000 0.000000
vt 0.238613 0.061417
vn 0.000000 -1.000000 0.000000
vt 0.230784 0.053588
vn 0.000000 -1.000000 0.000000
f 297/1073/1073 298/1074/1074 299/1075/1075 300/1076/1076 301/1077/1077 302/1078/1078 303/1079/1079 304/1080/1080
vt 0.230784 0.053588
vn 0.000000 1.000000 0.000000
vt 0.238613 0.061417
vn 0.000000 1.000000 0.000000
vt 0.294721 0.061417
vn 0.000000 1.000000 0.000000
vt 0.302550 0.053588
vn 0.000000 1.000000 0.000000
vt 0.302550 0.046412
vn 0.000000 1.000000 0.000000
vt 0.294721 0.038583
vn 0.000000 1.000000 0.000000
vt 0.238613 0.038583
vn 0.000000 1.000000 0.000000
vt 0.230784 0.046412
vn 0.000000 1.000000 0.000000
f 328/1081/1081 327/1082/1082 326/1083/1083 325/1084/1084 324/1085/1085 323/1086/1086 322/1087/1087 321/1088/1088
vt 0.220833 0.045417
vn -0.559190 -0.612056 -0.559190
vt 0.230833 0.035417
vn -0.559190 -0.612056 -0.559190
vt 0.238613 0.038583
vn -0.559190 -0.612056 -0.559190
vt 0.230784 0.046412
vn -0.559190 -0.612056 -0.559190
f 305/1089/1089 306/1090/1090 298/1091/1091 297/1092/1092
vt 0.230833 -0.269167
vn 0.000000 -0.301836 -0.953360
vt 0.302500 -0.269167
vn 0.000000 -0.301836 -0.953360
vt 0.294721 -0.279167
vn 0.000000 -0.301836 -0.953360
vt 0.238613 -0.279167
vn 0.000000 -0.301836 -0.953360
f 306/1093/1093 307/1094/1094 299/1095/1095 298/1096/1096
vt 0.302500 0.035417
vn 0.559190 -0.612056 -0.559190
vt 0.312500 0.045417
vn 0.559190 -0.612056 -0.559190
vt 0.302550 0.046412
vn 0.559190 -0.612056 -0.559190
vt 0.294721 0.038583
vn 0.559190 -0.612056 -0.559190
f 307/1097/1097 308/1098/1098 300/1099/1099 299/1100/1100
vt -0.269167 0.045417
vn 0.708864 -0.705346 0.000000
vt -0.269167 0.054583
vn 0.708864 -0.705346 0.000000
vt -0.279167 0.053588
vn 0.708864 -0.705346 0.000000
vt -0.279167 0.046412
vn 0.708864 -0.705346 0.000000
f 308/1101/1101 309/1102/1102 301/1103/1103 300/1104/1104
vt 0.312500 0.054583
vn 0.559190 -0.612056 0.559190
vt 0.302500 0.064583
vn 0.559190 -0.612056 0.559190
vt 0.294721 0.061417
vn 0.559190 -0.612056 0.559190
vt 0.302550 0.053588
vn 0.559190 -0.612056 0.559190
f 309/1105/1105 310/1106/1106 302/1107/1107 301/1108/1108
vt 0.302500 -0.269167
vn 0.000000 -0.301836 0.953360
vt 0.230833 -0.269167
vn 0.000000 -0.301836 0.953360
vt 0.238613 -0.279167
vn 0.000000 -0.301836 0.953360
vt 0.294721 -0.279167
vn 0.000000 -0.301836 0.953360
f 310/1109/1109 311/1110/1110 303/1111/1111 302/1112/1112
vt 0.230833 0.064583
vn -0.559190 -0.612056 0.559190
vt 0.220833 0.054583
vn -0.559190 -0.612056 0.559190
vt 0.230784 0.053588
vn -0.559190 -0.612056 0.559190
vt 0.238613 0.061417
vn -0.559190 -0.612056 0.559190
f 311/1113/1113 312/1114/1114 304/1115/1115 303/1116/1116
vt -0.269167 0.054583
vn -0.708864 -0.705346 -0.000000
vt -0.269167 0.045417
vn -0.708864 -0.705346 -0.000000
vt -0.279167 0.046412
vn -0.708864 -0.705346 -0.000000
vt -0.279167 0.053588
vn -0.708864 -0.705346 -0.000000
f 312/1117/1117 305/1118/1118 297/1119/1119 304/1120/1120
vt 0.220833 0.269167
vn -0.707107 0.000000 -0.707107
vt 0.230833 0.269167
vn -0.707107 0.000000 -0.707107
vt 0.230833 -0.269167
vn -0.707107 0.000000 -0.707107
vt 0.220833 -0.269167
vn -0.707107 0.000000 -0.707107
f 313/1121/1121 314/1122/1122 306/1123/1123 305/1124/1124
vt 0.230833 0.269167
vn 0.000000 0.000000 -1.000000
vt 0.302500 0.269167
vn 0.000000 0.000000 -1.000000
vt 0.302500 -0.269167
vn 0.000000 0.000000 -1.000000
vt 0.230833 -0.269167
vn 0.000000 0.000000 -1.000000
f 314/1125/1125 315/1126/1126 307/1127/1127 306/1128/1128
vt 0.302500 0.269167
vn 0.707107 0.000000 -0.707107
vt 0.312500 0.269167
vn 0.707107 0.000000 -0.707107
vt 0.312500 -0.269167
vn 0.707107 0.000000 -0.707107
vt 0.302500 -0.269167
vn 0.707107 0.000000 -0.707107
f 315/1129/1129 316/1130/1130 308/1131/1131 307/1132/1132
vt 0.269167 0.045417
vn 1.000000 0.000000 -0.000000
vt 0.269167 0.054583
vn 1.000000 0.000000 -0.000000
vt -0.269167 0.054583
vn 1.000000 0.000000 -0.000000
vt -0.269167 0.045417
vn 1.000000 0.000000 -0.000000
f 316/1133/1133 317/1134/1134 309/1135/1135 308/1136/1136
vt 0.312500 0.269167
vn 0.707107 0.000000 0.707107
vt 0.302500 0.269167
vn 0.707107 0.000000 0.707107
vt 0.302500 -0.269167
vn 0.707107 0.000000 0.707107
vt 0.312500 -0.269167
vn 0.707107 0.000000 0.707107
f 317/1137/1137 318/1138/1138 310/1139/1139 309/1140/1140
vt 0.302500 0.269167
vn 0.000000 0.000000 1.000000
vt 0.230833 0.269167
vn 0.000000 0.000000 1.000000
vt 0.230833 -0.269167
vn 0.000000 0.000000 1.000000
vt 0.302500 -0.269167
vn 0.000000 0.000000 1.000000
f 318/1141/1141 319/1142/1142 311/1143/1143 310/1144/1144
vt 0.230833 0.269167
vn -0.707107 0.000000 0.707107
vt 0.220833 0.269167
vn -0.707107 0.000000 0.707107
vt 0.220833 -0.269167
vn -0.707107 0.000000 0.707107
vt 0.230833 -0.269167
vn -0.707107 0.000000 0.707107
f 319/1145/1145 320/1146/1146 312/1147/1147 311/1148/1148
vt 0.269167 0.054583
vn -1.000000 0.000000 -0.000000
vt 0.269167 0.045417
vn -1.000000 0.000000 -0.000000
vt -0.269167 0.045417
vn -1.000000 0.000000 -0.000000
vt -0.269167 0.054583
vn -1.000000 0.000000 -0.000000
f 320/1149/1149 313/1150/1150 305/1151/1151 312/1152/1152
vt 0.230784 0.046412
vn -0.559190 0.612056 -0.559190
vt 0.238613 0.038583
vn -0.559190 0.612056 -0.559190
vt 0.230833 0.035417
vn -0.559190 0.612056 -0.559190
vt 0.220833 0.045417
vn -0.559190 0.612056 -0.559190
f 321/1153/1153 322/1154/1154 314/1155/1155 313/1156/1156
vt 0.238613 0.279167
vn 0.000000 0.301836 -0.953360
vt 0.294721 0.279167
vn 0.000000 0.301836 -0.953360
vt 0.302500 0.269167
vn 0.000000 0.301836 -0.953360
vt 0.230833 0.269167
vn 0.000000 0.301836 -0.953360
f 322/1157/1157 323/1158/1158 315/1159/1159 314/1160/1160
vt 0.294721 0.038583
vn 0.559190 0.612056 -0.559190
vt 0.302550 0.046412
vn 0.559190 0.612056 -0.559190
vt 0.312500 0.045417
vn 0.559190 0.612056 -0.559190
vt 0.302500 0.035417
vn 0.559190 0.612056 -0.559190
f 323/1161/1161 324/1162/1162 316/1163/1163 315/1164/1164
vt 0.279167 0.046412
vn 0.708864 0.705346 -0.000000
vt 0.279167 0.053588
vn 0.708864 0.705346 -0.000000
vt 0.269167 0.054583
vn 0.708864 0.705346 -0.000000
vt 0.269167 0.045417
vn 0.708864 0.705346 -0.000000
f 324/1165/1165 325/1166/1166 317/1167/1167 316/1168/1168
vt 0.302550 0.053588
vn 0.559190 0.612056 0.559190
vt 0.294721 0.061417
vn 0.559190 0.612056 0.559190
vt 0.302500 0.064583
vn 0.559190 0.612056 0.559190
vt 0.312500 0.054583
vn 0.559190 0.612056 0.559190
f 325/1169/1169 326/1170/1170 318/1171/1171 317/1172/1172
vt 0.294721 0.279167
vn 0.000000 0.301836 0.953360
vt 0.238613 0.279167
vn 0.000000 0.301836 0.953360
vt 0.230833 0.269167
vn 0.000000 0.301836 0.953360
vt 0.302500 0.269167
vn 0.000000 0.301836 0.953360
f 326/1173/1173 327/1174/1174 319/1175/1175 318/1176/1176
vt 0.238613 0.061417
vn -0.559190 0.612056 0.559190
vt 0.230784 0.053588
vn -0.559190 0.612056 0.559190
vt 0.220833 0.054583
vn -0.559190 0.612056 0.559190
vt 0.230833 0.064583
vn -0.559190 0.612056 0.559190
f 327/1177/1177 328/1178/1178 320/1179/1179 319/1180/1180
vt 0.279167 0.053588
vn -0.708864 0.705346 0.000000
vt 0.279167 0.046412
vn -0.708864 0.705346 0.000000
vt 0.269167 0.045417
vn -0.708864 0.705346 0.000000
vt 0.269167 0.054583
vn -0.708864 0.705346 0.000000
f 328/1181/1181 321/1182/1182 313/1183/1183 320/1184/1184
usemtl Glass
